/* XPM */
static char *_4dca06dc5e74865e5977df7fc40c1faw4XoVe1v6qly4Zwe[] = {
/* columns rows colors chars-per-pixel */
"64 64 10 1 ",
"  c None",
". c #222121",
"X c #3A3737",
"o c #5C1F1A",
"O c #9E3E37",
"+ c #827C7C",
"@ c #C84141",
"# c #CF7B49",
"$ c #B7B3B2",
"% c #EFE9E7",
/* pixels */
"                                                                ",
"                                                                ",
"                                                                ",
"                                                                ",
"                                                                ",
"                                                                ",
"                                                                ",
"                                                                ",
"                                                                ",
"                                                                ",
"                                                                ",
"                                                                ",
"                                                                ",
"                                                                ",
"                                                                ",
"                                              oooo              ",
"                                              oooo              ",
"                                           ooO@@OOoo            ",
"                                           ooO@@OOoo            ",
"                                           ooOXXXXoo            ",
"                                           $$%%%%%%%++          ",
"                                           $$%%%%%%%++          ",
"         XX++                            ++%%%..$$%%%%..        ",
"         XX++                            ++%%%..$$%%%%..        ",
"      XXX$$%%++                    XXXX++$$%%%..++%%####.       ",
"      XXX$$%%++                    XXXX++$$%%%..++%%####.       ",
"    XX$$$%%$$%%++++     XXXXXXXXXXX$$$$$$%%%%%%%%%%%####O..     ",
"    XX$$$%%$$%%++++     XXXXXXXXXXX$$$$$$%%%%%%%%%%%####O..     ",
"    XX++%$$%%$$%%%%XXXXX$$$$$$$$%%%%%%%%%%%%%%%%$$OOOOOO.       ",
"    XX++%$$%%$$%%%%XXXXX$$$$$$$$%%%%%%%%%%%%%%%%$$OOOOOO.       ",
"    XX++%%%$$%%$$%%%$$$$$$$$$$%%%$$++%%$$%%%%%%%%%%%....        ",
"    XX++%%%$$%%$$%%%$$$$$$$$$$%%%$$++%%$$%%%%%%%%%%%....        ",
"      XX+%%%%%%%%%%$%%$$$$%%$$++X++%%++%%%%%%%%%%%$$XX          ",
"      XX+%%%%%%%%%%$%%$$$$%%$$++X++%%++%%%%%%%%%%%$$XX          ",
"      XX+%%%%%%%%%%$++++XXXX++%%%%%%%%%%%%%%%%%%$$XX            ",
"      XX+%%%%%%%%%%$++++XXXX++%%%%%%%%%%%%%%%%%%$$XX            ",
"        X++%%%%%%$$X$$$$%%%%%%%%%%%%%%%%%%%%%.$$++XX            ",
"        X++%%%%%%$$X$$$$%%%%%%%%%%%%%%%%%%%%%.$$++XX            ",
"         XX++$$$$$$.$$$$$$$$%%%%%%%%%%%%%%%$$+$$++XX            ",
"         ..++++$$$$.$$%%%%%%%%%%%%%%%%%%%$$..+$$XX              ",
"         ..++++$$$$.$$%%%%%%%%%%%%%%%%%%%$$..+$$XX              ",
"           ..++++$$$..$$$$$$$$$$%%%%%%%$$$$..$++XX              ",
"           ..++++$$$..$$$$$$$$$$%%%%%%%$$$$..$++XX              ",
"             ..++++$..$$$$%%%%%%%%%%%$$$$..++$..                ",
"             ..++++$..$$$$%%%%%%%%%%%$$$$..++$..                ",
"               ..+++++....$$$$%%$$$$$....++++.                  ",
"               ..+++++....$$$$%%$$$$$....++++.                  ",
"                 ..+++++++...........++XX++..                   ",
"                 ..+++++++...........++XX++..                   ",
"                   ...++XX+++++++++++++XX..                     ",
"                   ...++XX+++++++++++++XX..                     ",
"                      ....+++++++++......                       ",
"                      ....+++++++++......                       ",
"                          ..++$$.....OO..                       ",
"                          ..++$$.....OO..                       ",
"                            ..OOOOO..OO....                     ",
"                            ..OOOOO..OO....                     ",
"                            ..OO#####..OO..                     ",
"                          ..OO##.OO##OO..                       ",
"                          ..OO##.OO##OO..                       ",
"                          ...... ........                       ",
"                          ...... ........                       ",
"                                                                ",
"                                                                "
};
