/* XPM */
static char *_a02a3db8deb405ab40613a241f8655fsDZ0zezFnnDtCjgW[] = {
/* columns rows colors chars-per-pixel */
"64 64 16 1 ",
"  c None",
". c #222121",
"X c #3A3737",
"o c #5C1F1A",
"O c #9E3E37",
"+ c #827C7C",
"@ c #C84141",
"# c #CF7B49",
"$ c #B7B3B2",
"% c #EFE9E7",
"l c #DDDDDD",
"z c #F1F1F1",
"k c #CBCBCB",
"h c #A2A2A2",
"9 c #868686",
", c #606060",
/* pixels */
"                                                                ",
"                                                                ",
"                                                                ",
"                                                                ",
"                                                                ",
"                 z            OOO                               ",
"             l                OOO                               ",
"           l                OO@@@OO                             ",
"         k                  OO@@@OO                             ",
"        k                 ++ooOOOoo++        z                  ",
"       h                  ++ooOOOoo++            l  l           ",
"    9,                  ++%%ooOOOoo%%++             k  k        ",
"                        ++%%ooOOOoo%%++               h         ",
"                      ++$$%%$$ooo$$%%$$++               9,      ",
"                      ++%%%%%%ooo%%%%%%++                       ",
"                      ++%%%%%%ooo%%%%%%++                       ",
"                    XX$$%%%%%%%%%%%%%%%$$XX                     ",
"                    XX$$%%%%%%%%%%%%%%%$$XX                     ",
"                   X$$$$%%%%%%%%%%%%%%%$$$$XX                   ",
"                   X$$$$%%%%%%%%%%%%%%%$$$$XX                   ",
"                 XX+$$$$$$%%%%%%%%%%%$$$$$$++X                  ",
"                 XX+$$$$$$%%%%%%%%%%%$$$$$$++X                  ",
"                 ++$$$%%$$$$%%%%%%%$$$$%%$$$$X                  ",
"                 ++$$$%%$$$$%%%%%%%$$$$%%$$$$X                  ",
"               XX$$%$$%%%%%%%%%%%%%%%%%%%$$%%$XX                ",
"               XX$$%$$%%%%%%%%%%%%%%%%%%%$$%%$XX                ",
"               ++%%%++%%%%%%%%%%%%%%%%%%%++%%%++                ",
"               ++%%%++%%%%%%%%%%%%%%%%%%%++%%%++                ",
"             ++$$%%%XX%%%%%%%%%%%%%%%%%%%XX%%%$$++              ",
"             ++$$%%%XX%%%%%%%%%%%%%%%%%%%XX%%%$$++              ",
"             ++%%%%$++$$%%%%%%%%%%%%%%%$$++$$%%%++              ",
"             ++%%%%$++$$%%%%%%%%%%%%%%%$$++$$%%%++              ",
"             ++%%$$%$$$$%%%%%%%%%%%%%%%$$$$%%$%%++              ",
"             XX$$%%$$$++%%%%%%%%%%%%%%%++$$$$%$$XX              ",
"             XX$$%%$$$++%%%%%%%%%%%%%%%++$$$$%$$XX              ",
"             XX$$%%%$$XX%%%%$$%%%$$%%%%XX$$%%%$$XX              ",
"             XX$$%%%$$XX%%%%$$%%%$$%%%%XX$$%%%$$XX              ",
"             XX++$$%%%XX$$%%$$%%%$$%%$$XX%%%%$++XX              ",
"             XX++$$%%%XX$$%%$$%%%$$%%$$XX%%%%$++XX              ",
"             XX++++$$$++XX%%++%%%++%%XX++$$$$+++XX              ",
"             XX++++$$$++XX%%++%%%++%%XX++$$$$+++XX              ",
"               XX++$++XXXX$$++$$$++$$XXXX++$$+XX                ",
"               XX++$++XXXX$$++$$$++$$XXXX++$$+XX                ",
"                 XXXXX$$++XXXX+++XXXX++$$XXXXX                  ",
"                 XXXXX$$++XXXX+++XXXX++$$XXXXX                  ",
"                    ..++$$$$$$+++++$$$$++..                     ",
"                    ..++$$$$$$+++++$$$$++..                     ",
"                    ..XX++$$$$$$+XX++XX..                       ",
"                    ..XX++$$$$$$+XX++XX..                       ",
"                    ..++++++++++.....                           ",
"                    ..++++++++++.....                           ",
"                      ..XXXX....                                ",
"                      XXOO##OOXX                                ",
"                      XXOO##OOXX                                ",
"                        XX##XX                                  ",
"                    z   XX##XX    z                             ",
"                     l  XXOOXX   l                              ",
"                      k XXOOXX  h                               ",
"                      h       9,                                ",
"                                                                ",
"                                                                ",
"                                                                ",
"                                                                ",
"                                                                "
};
