/* XPM */
static char *c6df72a9076845f9ac2ee5f0d290d9623XfusCjNmbv1Vqgc[] = {
/* columns rows colors chars-per-pixel */
"64 64 16 1 ",
"  c None",
". c #222121",
"X c #3A3737",
"o c #5C1F1A",
"O c #9E3E37",
"+ c #827C7C",
"@ c #C84141",
"# c #CF7B49",
"$ c #B7B3B2",
"% c #EFE9E7",
"l c #DDDDDD",
"z c #F1F1F1",
"k c #CBCBCB",
"h c #A2A2A2",
"9 c #868686",
", c #606060",
/* pixels */
"                                                                ",
"                                                                ",
"                                                                ",
"                                                                ",
"                                                                ",
"                                                                ",
"                                                                ",
"                                                                ",
"                                                                ",
"                                                                ",
"                                                                ",
"                                                                ",
"                                                                ",
"                                                                ",
"                                                                ",
"                 zlkh9,                                         ",
"                                                                ",
"                        zlkh9,                     oooo         ",
"                                                   oooo         ",
"                                                ooO@@OOoo       ",
"                           zlkh9,               ooO@@OOoo       ",
"                                                ooOXXXXoo       ",
"                                                $$%%%%%%%++     ",
"                                                $$%%%%%%%++     ",
"                                              ++%%%..$$%%%%..   ",
"                                              ++%%%..$$%%%%..   ",
"             X++                      XX++++++$$%%%..++%%####.  ",
"             X++                      XX++++++$$%%%..++%%####.  ",
"         XXXX$%%++         XXXXXXXXXXX$$%%%%$$%%%%%%%%%%%####O..",
"         XXXX$%%++         XXXXXXXXXXX$$%%%%$$%%%%%%%%%%%####O..",
"       XX$$$$%$$%%++++XXXXX$$$$$$$$%%%%%%%$$%%%%%%%%%$$OOOOOO.  ",
"       XX$$$$%$$%%++++XXXXX$$$$$$$$%%%%%%%$$%%%%%%%%%$$OOOOOO.  ",
"       XX++%%$%%$$%%%%%%$$$$$$$$$%%%%$++++++%%%%%%%%%%%%%....   ",
"       XX++%%$%%$$%%%%%%$$$$$$$$$%%%%$++++++%%%%%%%%%%%%%....   ",
"       XX++%%%$$%%$$%%$$%$$$$%%$$++XX+$$%%%%%%%%%%%%%%%$$XX     ",
"       XX++%%%$$%%$$%%$$%$$$$%%$$++XX+$$%%%%%%%%%%%%%%%$$XX     ",
"         XX++%%%%%%%%%$$+++XXXX++%%%%%%%%%%%%%%%%%%%%$$XX       ",
"         XX++%%%%%%%%%$$+++XXXX++%%%%%%%%%%%%%%%%%%%%$$XX       ",
"         XX++%%%%%%%%%XX$$$%%%%%%%%%%%%%%%%%%%%%%%%$$$$XX       ",
"         XX++%%%%%%%%%XX$$$%%%%%%%%%%%%%%%%%%%%%%%%$$$$XX       ",
"           XX+%%%%%%$$..$$$$$$$%%%%%%%%%%%%%%%$$++$++XX         ",
"             X++$$$$$$..$%%%%%%%%%%%%%%%%%%%$$..++$XX           ",
"             X++$$$$$$..$%%%%%%%%%%%%%%%%%%%$$..++$XX           ",
"              ..++++$$$$.$$$$$$$$$$%%%%%%%$$$$..$$+XX           ",
"              ..++++$$$$.$$$$$$$$$$%%%%%%%$$$$..$$+XX           ",
"                ..++++$$.$$$$%%%%%%%%%%%$$$$..++$$.             ",
"                ..++++$$.$$$$%%%%%%%%%%%$$$$..++$$.             ",
"                  ..+++++....$$$$%%$$$$$....++++..              ",
"                  ..+++++....$$$$%%$$$$$....++++..              ",
"                    ..+++++++...........++++++..                ",
"                    ..+++++++...........++++++..                ",
"                      ...+++++++++++++++++....                  ",
"                      ...+++++++++++++++++....                  ",
"                         ........++++$$$$$++..                  ",
"            z            ........++++$$$$$++..                  ",
"             l             ..++....+++$$##OO......              ",
"               k           ..++....+++$$##OO......              ",
"                h            ...........OO########.             ",
"              zlkh9,         ...........OO########.             ",
"                  zlkh9,     ....OOOO.  ..##OO....              ",
"                                        ..OO..                  ",
"                                        ..OO..                  ",
"                                                                ",
"                                                                "
};
