/* XPM */
static char *_1094155099b49b3f5087ec350c23dc2YCd3qmaWA6nnY3yo[] = {
/* columns rows colors chars-per-pixel */
"64 64 16 1 ",
"  c None",
". c #222121",
"X c #3A3737",
"o c #5C1F1A",
"O c #9E3E37",
"+ c #827C7C",
"@ c #C84141",
"# c #CF7B49",
"$ c #B7B3B2",
"% c #EFE9E7",
"l c #DDDDDD",
"z c #F1F1F1",
"k c #CBCBCB",
"h c #A2A2A2",
"9 c #868686",
", c #606060",
/* pixels */
"                                                                ",
"                                                                ",
"                            XX+++XX                             ",
"                 9,         XX+++XX                             ",
"              h           XX++%%%++XX                           ",
"             h            XX++%%%++XX                           ",
"            k           XX%%++%%%++%%XX                         ",
"         k              XX%%++%%%++%%XX                         ",
"       z                XX%%$$%%%$$%%XX         9,              ",
"                        XX%%$$%%%$$%%XX            h  h         ",
"                      XX$$%%%%%%%%%%%$$XX             k  k      ",
"                    XX++$$%%%%%%%%%%%$$++XX             l       ",
"                    XX++$$%%%%%%%%%%%$$++XX              z      ",
"                   XXX++%%%%%%ooo%%%%%%++XXXX                   ",
"                   XXX++%%%%%%ooo%%%%%%++XXXX                   ",
"                 XX+$$++%%%%ooOOOoo%%%%++$$++X                  ",
"                 XX+$$++%%%%ooOOOoo%%%%++$$++X                  ",
"               XX$$%%%++$$XXOO@@@OOXX$$++%%%%$XX                ",
"               XX$$%%%++$$XXOO@@@OOXX$$++%%%%$XX                ",
"             XX$$$$%$$$$XX++oo@@@oo++XX$$$$%%$$$XX              ",
"             XX$$$$%$$$$XX++oo@@@oo++XX$$$$%%$$$XX              ",
"             XX%%$$%$$$$++%%%%OOO%%%%++$$$$%%$%%XX              ",
"             XX%%$$%$$$$++%%%%OOO%%%%++$$$$%%$%%XX              ",
"             XX%%%%%++XX%%++%%%%%%%++%%XX++%%%%%XX              ",
"             XX%%%%%++XX%%++%%%%%%%++%%XX++%%%%%XX              ",
"             XX$$%%%++XX%%..%%OOO%%..%%XX++%%%$$XX              ",
"             XX$$%%%++XX%%..%%OOO%%..%%XX++%%%$$XX              ",
"             XX%%%%%++XX%%%%OO###OO%%%%XX++%%%%%XX              ",
"             XX%%%%%++XX%%%%OO###OO%%%%XX++%%%%%XX              ",
"             XX$$%%%$$++$$ooOO###OOoo$$++$$%%%$$XX              ",
"             XX++%%%%%$$$$$$OO##Ooo$$$$$$%%%%%++XX              ",
"             XX++%%%%%$$$$$$OO##Ooo$$$$$$%%%%%++XX              ",
"             XX++$$%%%$$%%$$$$OOo$$$$%%$$%%%%$++XX              ",
"             XX++$$%%%$$%%$$$$OOo$$$$%%$$%%%%$++XX              ",
"             XX++++%%%%%%%$$%%%%%%%$$%%%%%%%%+++XX              ",
"             XX++++%%%%%%%$$%%%%%%%$$%%%%%%%%+++XX              ",
"               XX++$++XX$$%%%%%%%%%%%$$XX++$$+XX                ",
"               XX++$++XX$$%%%%%%%%%%%$$XX++$$+XX                ",
"                 XXXXX$$%%%%%%$$$%%%%%%$$XXXXX                  ",
"                 XXXXX$$%%%%%%$$$%%%%%%$$XXXXX                  ",
"                    XX++++$$$$$$$$$$$++++XX                     ",
"                    XX++++$$$$$$$$$$$++++XX                     ",
"                    XXXX++++$$$$$$$++++XX                       ",
"                    XXXX++++$$$$$$$++++XX                       ",
"                    XX++++$$$$$$...XXXX                         ",
"                    XX++++$$$$$$...XXXX                         ",
"                      XX++$$$$++X                               ",
"                      XX++$$$$++X                               ",
"                      XXXXXXXX..                                ",
"                      XXOOOOOO..                                ",
"                      XXOOOOOO..                                ",
"                    XX##XX##OOXX                                ",
"                    XX##XX##OOXX                                ",
"                      OOXX##XX                                  ",
"                  z   OOXX##XX  z                               ",
"                   l      OO  l                                 ",
"                    k     OO h                                  ",
"                    h       9,                                  ",
"                                                                ",
"                                                                ",
"                                                                ",
"                                                                ",
"                                                                ",
"                                                                "
};
