/* XPM */
static char *result[] = {
/* columns rows colors chars-per-pixel */
"64 64 16 1 ",
"p c #222121",
". c #3A3737",
"X c #5C1F1A",
"o c #9E3E37",
"O c #827C7C",
"+ c #C84141",
"@ c #CF7B49",
"# c #B7B3B2",
"$ c #EFE9E7",
"  c None",
"l c #DDDDDD",
"z c #F1F1F1",
"k c #CBCBCB",
"h c #A2A2A2",
"9 c #868686",
", c #606060",
/* pixels */
"                                                                ",
"                                                                ",
"                                                                ",
"                                                                ",
"                                                                ",
"                                                                ",
"                                                                ",
"                                                                ",
"                                                                ",
"                                                                ",
"                                                                ",
"                                                                ",
"                                                                ",
"                                                                ",
"                                          ,9khlz                ",
"               XXXX                                             ",
"               XXXX                  ,9khlz                     ",
"             XXoo++ooX                                          ",
"             XXoo++ooX           ,9khlz                         ",
"             XX....ooX                                          ",
"           OO$$$$$$$$#                                          ",
"           OO$$$$$$$$#                                          ",
"          p$$$$##pp$$$OO                                        ",
"          p$$$$##pp$$$OO                                        ",
"        pp@@@$$OOpp$$$##OOOOOO..                      OO..      ",
"        pp@@@$$OOpp$$$##OOOOOO..                      OO..      ",
"      ppoo@@@$$$$$$$$$$$##$$$$##...........         OO$$##...   ",
"      ppoo@@@$$$$$$$$$$$##$$$$##...........         OO$$##...   ",
"        ppooooo##$$$$$$$$$##$$$$$$$########.....OOOO$$##$$###.. ",
"        ppooooo##$$$$$$$$$##$$$$$$$########.....OOOO$$##$$###.. ",
"          ppp$$$$$$$$$$$$$OOOOOO##$$$##########$$$$$##$$##$OO.. ",
"          ppp$$$$$$$$$$$$$OOOOOO##$$$##########$$$$$##$$##$OO.. ",
"           ..##$$$$$$$$$$$$$$$##OO.OO##$$####$$#$$##$$##$$$OO.. ",
"           ..##$$$$$$$$$$$$$$$##OO.OO##$$####$$#$$##$$##$$$OO.. ",
"             ..##$$$$$$$$$$$$$$$$$$$$OO....OOOO#$$$$$$$$$$O..   ",
"             ..##$$$$$$$$$$$$$$$$$$$$OO....OOOO#$$$$$$$$$$O..   ",
"             ..####$$$$$$$$$$$$$$$$$$$$$$$$####.$$$$$$$$$$O..   ",
"             ..####$$$$$$$$$$$$$$$$$$$$$$$$####.$$$$$$$$$$O..   ",
"               ..OO##O##$$$$$$$$$$$$$$$########p##$$$$$$OO.     ",
"                 ..##Opp##$$$$$$$$$$$$$$$$$$$##p######OO..      ",
"                 ..##Opp##$$$$$$$$$$$$$$$$$$$##p######OO..      ",
"                 ..OO#pp####$$$$$$$##########pp###OOOOpp        ",
"                 ..OO#pp####$$$$$$$##########pp###OOOOpp        ",
"                   pp#OOpp####$$$$$$$$$$$####pp#OOOOpp          ",
"                   pp#OOpp####$$$$$$$$$$$####pp#OOOOpp          ",
"                     pOOOOpppp#####$$####ppppOOOOOpp            ",
"                     pOOOOpppp#####$$####ppppOOOOOpp            ",
"                      pp..OOOOpppppppppppOOOOOOOpp              ",
"                      pp..OOOOpppppppppppOOOOOOOpp              ",
"                     pppOOppOOOOOOOOOOOOOOOOOppp                ",
"                     pppOOppOOOOOOOOOOOOOOOOOppp                ",
"                   ppooopp..ppOO#########pppp                   ",
"                   ppooopp..ppOO#########pppp                   ",
"                   pppppooooppppOOO##oooopp                     ",
"                   pppppooooppppOOO##oooopp              z      ",
"                        pppp      ppp@@@@oopp           l       ",
"                        pppp      ppp@@@@oopp          k        ",
"                                pppoo@@ppoopp         h         ",
"                                ppo@@pp  pppp       ,9khlz      ",
"                                ppo@@pp  pppp    ,9khlz         ",
"                                ppppppp                         ",
"                                ppppppp                         ",
"                                                                ",
"                                                                "
};
