/* XPM */
static char *_d7d7906d59f4d0bc25a4823b6838470WTcwKzBptILzm5Kh[] = {
/* columns rows colors chars-per-pixel */
"64 64 10 1 ",
"  c None",
". c #222121",
"X c #3A3737",
"o c #5C1F1A",
"O c #9E3E37",
"+ c #827C7C",
"@ c #C84141",
"# c #CF7B49",
"$ c #B7B3B2",
"% c #EFE9E7",
/* pixels */
"                                                                ",
"                                                                ",
"                                                                ",
"                                                                ",
"                                                                ",
"                                                                ",
"                                                                ",
"                                                                ",
"                                                                ",
"                                                                ",
"                                                                ",
"                                                                ",
"                            XX+++XX                             ",
"                            XX+++XX                             ",
"                          XX++%%%++XX                           ",
"                          XX++%%%++XX                           ",
"                        XX%%++%%%++%%XX                         ",
"                        XX%%++%%%++%%XX                         ",
"                        XX%%$$%%%$$%%XX                         ",
"                        XX%%$$%%%$$%%XX                         ",
"                      XX$$%%%%%%%%%%%$$XX                       ",
"                    XXXX$$%%%%ooo%%%%$$XXXX                     ",
"                    XXXX$$%%%%ooo%%%%$$XXXX                     ",
"                   XXX++%%%%ooOOOoo%%%%++XXXX                   ",
"                   XXX++%%%%ooOOOoo%%%%++XXXX                   ",
"                 XX+$$++$$XXOO@@@OOXX$$++$$++X                  ",
"                 XX+$$++$$XXOO@@@OOXX$$++$$++X                  ",
"               XX$$%%%$$XX++oo@@@oo++XX$$%%%%$XX                ",
"               XX$$%%%$$XX++oo@@@oo++XX$$%%%%$XX                ",
"             XX$$$$%$$$$++%%%%OOO%%%%++$$$$%%$$$XX              ",
"             XX$$$$%$$$$++%%%%OOO%%%%++$$$$%%$$$XX              ",
"             XX%%$$%$$XX%%++%%%%%%%++%%XX$$%%$%%XX              ",
"             XX%%$$%$$XX%%++%%%%%%%++%%XX$$%%$%%XX              ",
"             XX%%%%%++XX%%..%%OOO%%..%%XX++%%%%%XX              ",
"             XX%%%%%++XX%%..%%OOO%%..%%XX++%%%%%XX              ",
"             XX$$%%%++XX%%%%OO###OO%%%%XX++%%%$$XX              ",
"             XX$$%%%++XX%%%%OO###OO%%%%XX++%%%$$XX              ",
"             XX%%%%%++XX$$ooOO###OOoo$$XX++%%%%%XX              ",
"             XX%%%%%++XX$$ooOO###OOoo$$XX++%%%%%XX              ",
"             XX$$%%%XX++$$$$OO##Ooo$$$$++XX%%%$$XX              ",
"             XX++%%%XX$$%%$$$$OOo$$$$%%$$XX%%%++XX              ",
"             XX++%%%XX$$%%$$$$OOo$$$$%%$$XX%%%++XX              ",
"             XX++$$%$$%%%%%%%%$$$%%%%%%%%$$%%$++XX              ",
"             XX++$$%$$%%%%%%%%$$$%%%%%%%%$$%%$++XX              ",
"             XX++++%%%%%%%$$%%%%%%%$$%%%%%%%%+++XX              ",
"             XX++++%%%%%%%$$%%%%%%%$$%%%%%%%%+++XX              ",
"               XX++$++XX$$%%%%%%%%%%%$$XX++$$+XX                ",
"               XX++$++XX$$%%%%%%%%%%%$$XX++$$+XX                ",
"                 XXXXX$$%%%%%%$$$%%%%%%$$XXXXX                  ",
"                 XXXXX$$%%%%%%$$$%%%%%%$$XXXXX                  ",
"                   X++XX++++$$$$$$$++++XX++XX                   ",
"                   X++XX++++$$$$$$$++++XX++XX                   ",
"                    XX++$$$$++...++$$$$++XX                     ",
"                    XX++$$$$++...++$$$$++XX                     ",
"                    XXXXXXXX..   ..XXXXXXXX                     ",
"                    XXXXXXXX..   ..XXXXXXXX                     ",
"                    XXOOOOOO..   ..OOOOOOXX                     ",
"                    XXOOOOOO..   ..OOOOOOXX                     ",
"                   X##XX##OOXX   XXOO##XX##XX                   ",
"                    OOXX##XX       XX##XXOO                     ",
"                    OOXX##XX       XX##XXOO                     ",
"                        OO           OO                         ",
"                        OO           OO                         ",
"                                                                "
};
