/* XPM */
static char *result[] = {
/* columns rows colors chars-per-pixel */
"64 64 10 1 ",
"  c #222121",
". c #3A3737",
"X c #5C1F1A",
"o c #9E3E37",
"O c #827C7C",
"+ c #C84141",
"@ c #CF7B49",
"# c #B7B3B2",
"$ c #EFE9E7",
"% c None",
/* pixels */
"%%%%%%%%%%%%%%%%%%%%%%%%%%%%%%%%%%%%%%%%%%%%%%%%%%%%%%%%%%%%%%%%",
"%%%%%%%%%%%%%%%%%%%%%%%%%%%%%%%%%%%%%%%%%%%%%%%%%%%%%%%%%%%%%%%%",
"%%%%%%%%%%%%%%%%%%%%%%%%%%%%%%%%%%%%%%%%%%%%%%%%%%%%%%%%%%%%%%%%",
"%%%%%%%%%%%%%%%%%%%%%%%%%%%%%%%%%%%%%%%%%%%%%%%%%%%%%%%%%%%%%%%%",
"%%%%%%%%%%%%%%%%%%%%%%%%%%%%%%%%%%%%%%%%%%%%%%%%%%%%%%%%%%%%%%%%",
"%%%%%%%%%%%%%%%%%%%%%%%%%%%%%%%%%%%%%%%%%%%%%%%%%%%%%%%%%%%%%%%%",
"%%%%%%%%%%%%%%%%%%%%%%%%%%%%%%%%%%%%%%%%%%%%%%%%%%%%%%%%%%%%%%%%",
"%%%%%%%%%%%%%%%%%%%%%%%%%%%%%%%%%%%%%%%%%%%%%%%%%%%%%%%%%%%%%%%%",
"%%%%%%%%%%%%%%%%%%%%%%%%%%%%%%%%%%%%%%%%%%%%%%%%%%%%%%%%%%%%%%%%",
"%%%%%%%%%%%%%%%%%%%%%%%%%%%%%%%%%%%%%%%%%%%%%%%%%%%%%%%%%%%%%%%%",
"%%%%%%%%%%%%%%%%%%%%%%%%%%%%%%%%%%%%%%%%%%%%%%%%%%%%%%%%%%%%%%%%",
"%%%%%%%%%%%%%%%%%%%%%%%%%%%%%%%%%%%%%%%%%%%%%%%%%%%%%%%%%%%%%%%%",
"%%%%%%%%%%%%%%%%%%%%%%%%%%%%%%%%%%%%%%%%%%%%%%%%%%%%%%%%%%%%%%%%",
"%%%%%%%%%%%%%%%%%%%%%%%%%%%%%%%%%%%%%%%%%%%%%%%%%%%%%%%%%%%%%%%%",
"%%%%%%%%%%%%%%%%%%%%%%%%%%%%%%%%%%%%%%%%%%%%%%%%%%%%%%%%%%%%%%%%",
"%%%%%%%%%%%%%%XXX%%%%%%%%%%%%%%%%%%%%%%%%%%%%%%%%%%%%%%%%%%%%%%%",
"%%%%%%%%%%%%%%XXX%%%%%%%%%%%%%%%%%%%%%%%%%%%%%%%%%%%%%%%%%%%%%%%",
"%%%%%%%%%%%%XXoo+ooXX%%%%%%%%%%%%%%%%%%%%%%%%%%%%%%%%%%%%%%%%%%%",
"%%%%%%%%%%%%XXoo+ooXX%%%%%%%%%%%%%%%%%%%%%%%%%%%%%%%%%%%%%%%%%%%",
"%%%%%%%%%%%%XX...ooXX%%%%%%%%%%%%%%%%%%%%%%%%%%%%%%%%%%%%%%%%%%%",
"%%%%%%%%%%OO$$$$$$$##%%%%%%%%%%%%%%%%%%%%%%%%%%%%%%%%%%%%%%%%%%%",
"%%%%%%%%%%OO$$$$$$$##%%%%%%%%%%%%%%%%%%%%%%%%%%%%%%%%%%%%%%%%%%%",
"%%%%%%%%  $$$$## $$$$OO%%%%%%%%%%%%%%%%%%%%%%%%%%%%OO.%%%%%%%%%%",
"%%%%%%%%  $$$$## $$$$OO%%%%%%%%%%%%%%%%%%%%%%%%%%%%OO.%%%%%%%%%%",
"%%%%%%  @@@@$$OO $$$$##OO....%%%%%%%%%%%%%%%%%%%%OO$$#....%%%%%%",
"%%%%%%  @@@@$$OO $$$$##OO....%%%%%%%%%%%%%%%%%%%%OO$$#....%%%%%%",
"%%%%% oo@@@@$$$$$$$$$$$######...........%%%%%OOOO$$##$####..%%%%",
"%%%%% oo@@@@$$$$$$$$$$$######...........%%%%%OOOO$$##$####..%%%%",
"%%%%%%  oooooo##$$$$$$$$$$$$$$$$########.....$$$$##$$#$$OO..%%%%",
"%%%%%%  oooooo##$$$$$$$$$$$$$$$$########.....$$$$##$$#$$OO..%%%%",
"%%%%%%%%    $$$$$$$$$$$##$$OO#$$$$#########$$$$##$$##$$$OO..%%%%",
"%%%%%%%%    $$$$$$$$$$$##$$OO#$$$$#########$$$$##$$##$$$OO..%%%%",
"%%%%%%%%%%..##$$$$$$$$$$$OO$$O..OO##$$####$##$$$$$$$$$OO..%%%%%%",
"%%%%%%%%%%..##$$$$$$$$$$$OO$$O..OO##$$####$##$$$$$$$$$OO..%%%%%%",
"%%%%%%%%%%%%..##$$$$$$$$$$$$$$$$$$OO....OOO##$$$$$$$$$OO..%%%%%%",
"%%%%%%%%%%%%..##$$$$$$$$$$$$$$$$$$OO....OOO##$$$$$$$$$OO..%%%%%%",
"%%%%%%%%%%%%..OO#  $$$$$$$$$$$$$$$$$$$$$###..##$$$$$$O..%%%%%%%%",
"%%%%%%%%%%%%..OO#  $$$$$$$$$$$$$$$$$$$$$###..##$$$$$$O..%%%%%%%%",
"%%%%%%%%%%%%..OO#OO##$$$$$$$$$$$$$$$#######  ######OO.%%%%%%%%%%",
"%%%%%%%%%%%%%%..#OO  ##$$$$$$$$$$$$$$$$$$$#  ####OOOO %%%%%%%%%%",
"%%%%%%%%%%%%%%..#OO  ##$$$$$$$$$$$$$$$$$$$#  ####OOOO %%%%%%%%%%",
"%%%%%%%%%%%%%%..O##  ####$$$$$$$########## ####OOOO  %%%%%%%%%%%",
"%%%%%%%%%%%%%%..O##  ####$$$$$$$########## ####OOOO  %%%%%%%%%%%",
"%%%%%%%%%%%%%%%% ##OO  ####$$$$$$$$$$$#### ##OOOO  %%%%%%%%%%%%%",
"%%%%%%%%%%%%%%%% ##OO  ####$$$$$$$$$$$#### ##OOOO  %%%%%%%%%%%%%",
"%%%%%%%%%%%%%%%%%  OOOO    #####$$####    OOOOO  %%%%%%%%%%%%%%%",
"%%%%%%%%%%%%%%%%%  OOOO    #####$$####    OOOOO  %%%%%%%%%%%%%%%",
"%%%%%%%%%%%%%%%%%%%  OO..OO           OOOOOOO  %%%%%%%%%%%%%%%%%",
"%%%%%%%%%%%%%%%%%%%  OO..OO           OOOOOOO  %%%%%%%%%%%%%%%%%",
"%%%%%%%%%%%%%%%%%%%%%  ..OOOOOOOOOOOOO..OO   %%%%%%%%%%%%%%%%%%%",
"%%%%%%%%%%%%%%%%%%%%%  ..OOOOOOOOOOOOO..OO   %%%%%%%%%%%%%%%%%%%",
"%%%%%%%%%%%%%%%%%%%%%%%      OOOOOOOOO    %%%%%%%%%%%%%%%%%%%%%%",
"%%%%%%%%%%%%%%%%%%%%%%%      OOOOOOOOO    %%%%%%%%%%%%%%%%%%%%%%",
"%%%%%%%%%%%%%%%%%%%%%%%  oo     ##OO  %%%%%%%%%%%%%%%%%%%%%%%%%%",
"%%%%%%%%%%%%%%%%%%%%%%%  oo     ##OO  %%%%%%%%%%%%%%%%%%%%%%%%%%",
"%%%%%%%%%%%%%%%%%%%%%    oo  ooooo  %%%%%%%%%%%%%%%%%%%%%%%%%%%%",
"%%%%%%%%%%%%%%%%%%%%%    oo  ooooo  %%%%%%%%%%%%%%%%%%%%%%%%%%%%",
"%%%%%%%%%%%%%%%%%%%%%  oo  @@@@@oo  %%%%%%%%%%%%%%%%%%%%%%%%%%%%",
"%%%%%%%%%%%%%%%%%%%%%%%  oo@@o  @@oo  %%%%%%%%%%%%%%%%%%%%%%%%%%",
"%%%%%%%%%%%%%%%%%%%%%%%  oo@@o  @@oo  %%%%%%%%%%%%%%%%%%%%%%%%%%",
"%%%%%%%%%%%%%%%%%%%%%%%       %%      %%%%%%%%%%%%%%%%%%%%%%%%%%",
"%%%%%%%%%%%%%%%%%%%%%%%       %%      %%%%%%%%%%%%%%%%%%%%%%%%%%",
"%%%%%%%%%%%%%%%%%%%%%%%%%%%%%%%%%%%%%%%%%%%%%%%%%%%%%%%%%%%%%%%%",
"%%%%%%%%%%%%%%%%%%%%%%%%%%%%%%%%%%%%%%%%%%%%%%%%%%%%%%%%%%%%%%%%"
};
