/* XPM */
static char *result[] = {
/* columns rows colors chars-per-pixel */
"64 64 16 1 ",
"! c #222121",
". c #3A3737",
"X c #5C1F1A",
"o c #9E3E37",
"O c #827C7C",
"+ c #C84141",
"@ c #CF7B49",
"# c #B7B3B2",
"$ c #EFE9E7",
"  c None",
"l c #DDDDDD",
"z c #F1F1F1",
"k c #CBCBCB",
"h c #A2A2A2",
"9 c #868686",
", c #606060",
/* pixels */
"                                                                ",
"                                                                ",
"                                                                ",
"                                                                ",
"                                                                ",
"                                                                ",
"                            ..OOO..                             ",
"                      9,    ..OOO..                             ",
"                     h    ..OO$$$OO..                           ",
"                   h      ..OO$$$OO..                           ",
"                   k    ..$$OO$$$OO$$..                         ",
"                 k      ..$$OO$$$OO$$..                         ",
"               z        ..$$##$$$##$$..         9,    h         ",
"                        ..$$##$$$##$$..          h  h           ",
"                      ..##$$$$$$$$$$$##..         k             ",
"                    ..OO##$$$$$$$$$$$##OO..         l           ",
"                    ..OO##$$$$$$$$$$$##OO..           z         ",
"                   ...OO$$$$$$XXX$$$$$$OO....                   ",
"                   ...OO$$$$$$XXX$$$$$$OO....                   ",
"                 ..O##OO$$$$XXoooXX$$$$OO##OO.                  ",
"                 ..O##OO$$$$XXoooXX$$$$OO##OO.                  ",
"               ..##$$$OO##..oo+++oo..##OO$$$$#..                ",
"               ..##$$$OO##..oo+++oo..##OO$$$$#..                ",
"             ..####$####..OOXX+++XXOO..####$$###..              ",
"             ..####$####..OOXX+++XXOO..####$$###..              ",
"             ..$$##$####OO$$$$ooo$$$$OO####$$#$$..              ",
"             ..$$##$####OO$$$$ooo$$$$OO####$$#$$..              ",
"             ..$$$$$OO..$$OO$$$$$$$OO$$..OO$$$$$..              ",
"             ..$$$$$OO..$$OO$$$$$$$OO$$..OO$$$$$..              ",
"             ..##$$$OO..$$!!$$ooo$$!!$$..OO$$$##..              ",
"             ..##$$$OO..$$!!$$ooo$$!!$$..OO$$$##..              ",
"             ..$$$$$OO..$$$$oo@@@oo$$$$..OO$$$$$..              ",
"             ..$$$$$OO..$$$$oo@@@oo$$$$..OO$$$$$..              ",
"             ..##$$$##OO##XXoo@@@ooXX##OO##$$$##..              ",
"             ..OO$$$$$######oo@@oXX######$$$$$OO..              ",
"             ..OO$$$$$######oo@@oXX######$$$$$OO..              ",
"             ..OO##$$$##$$####ooX####$$##$$$$#OO..              ",
"             ..OO##$$$##$$####ooX####$$##$$$$#OO..              ",
"             ..OOOO$$$$$$$##$$$$$$$##$$$$$$$$OOO..              ",
"             ..OOOO$$$$$$$##$$$$$$$##$$$$$$$$OOO..              ",
"               ..OO#OO..##$$$$$$$$$$$##..OO##O..                ",
"               ..OO#OO..##$$$$$$$$$$$##..OO##O..                ",
"                 .....##$$$$$$###$$$$$$##.....                  ",
"                 .....##$$$$$$###$$$$$$##.....                  ",
"                    ..OOOO###########OOOO..                     ",
"                    ..OOOO###########OOOO..                     ",
"                      ..OOOO#######OOOO....                     ",
"                      ..OOOO#######OOOO....                     ",
"                        ....!!!!#####OOOO..                     ",
"                        ....!!!!#####OOOO..                     ",
"                              ..O####OO..                       ",
"                              ..O####OO..                       ",
"                                !........                       ",
"                                !oooooo..                       ",
"                                !oooooo..                       ",
"                                .oo@@..@@..                     ",
"                                .oo@@..@@..    9                ",
"                             9,  ..@@..oo    h                  ",
"                              h  ..@@..oo  k                    ",
"                               k   oo    l                      ",
"                                l  oo  z                        ",
"                                 z                              ",
"                                                                ",
"                                                                "
};
