/* XPM */
static char *_73f4ac8891244ccc0f2e7ad8165258fTJXtbwn8VylR9KvV[] = {
/* columns rows colors chars-per-pixel */
"64 64 16 1 ",
"  c None",
". c #222121",
"X c #3A3737",
"o c #5C1F1A",
"O c #9E3E37",
"+ c #827C7C",
"@ c #C84141",
"# c #CF7B49",
"$ c #B7B3B2",
"% c #EFE9E7",
"l c #DDDDDD",
"z c #F1F1F1",
"k c #CBCBCB",
"h c #A2A2A2",
"9 c #868686",
", c #606060",
/* pixels */
"                                                                ",
"                              OOO                               ",
"                              OOO                               ",
"                            OO@@@OO                             ",
"                z           OO@@@OO                             ",
"                          ++ooOOOoo++                           ",
"              l           ++ooOOOoo++                           ",
"                        ++%%ooOOOoo%%++                         ",
"            k           ++%%ooOOOoo%%++                         ",
"           h          ++$$%%$$ooo$$%%$$++                       ",
"          9,          ++%%%%%%ooo%%%%%%++                       ",
"                      ++%%%%%%ooo%%%%%%++                       ",
"                    XX$$%%%%%%%%%%%%%%%$$XX                     ",
"                    XX$$%%%%%%%%%%%%%%%$$XX   z                 ",
"                   X$$$$%%%%%%%%%%%%%%%$$$$XX                   ",
"                   X$$$$%%%%%%%%%%%%%%%$$$$XX  l                ",
"                 XX+$$$$$$%%%%%%%%%%%$$$$$$++X                  ",
"                 XX+$$$$$$%%%%%%%%%%%$$$$$$++X   k              ",
"                 ++$$$%%$$$$%%%%%%%$$$$%%$$$$X                  ",
"                 ++$$$%%$$$$%%%%%%%$$$$%%$$$$X     h            ",
"               XX$$%$$%%%%%%%%%%%%%%%%%%%$$%%$XX     9,         ",
"               XX$$%$$%%%%%%%%%%%%%%%%%%%$$%%$XX                ",
"               ++%%%++%%%%%%%%%%%%%%%%%%%++%%%++                ",
"               ++%%%++%%%%%%%%%%%%%%%%%%%++%%%++                ",
"             ++$$%%%XX%%%%%%%%%%%%%%%%%%%XX%%%$$++              ",
"             ++$$%%%XX%%%%%%%%%%%%%%%%%%%XX%%%$$++              ",
"             ++%%%%$++$$%%%%%%%%%%%%%%%$$++$$%%%++              ",
"             ++%%%%$++$$%%%%%%%%%%%%%%%$$++$$%%%++              ",
"             ++%%$$%$$$$%%%%%%%%%%%%%%%$$$$%%$%%++              ",
"             XX$$%%$$$++%%%%%%%%%%%%%%%++$$$$%$$XX              ",
"             XX$$%%$$$++%%%%%%%%%%%%%%%++$$$$%$$XX              ",
"             XX$$%%%$$XX%%%%$$%%%$$%%%%XX$$%%%$$XX              ",
"             XX$$%%%$$XX%%%%$$%%%$$%%%%XX$$%%%$$XX              ",
"             XX++$$%%%XX$$%%$$%%%$$%%$$XX%%%%$++XX              ",
"             XX++$$%%%XX$$%%$$%%%$$%%$$XX%%%%$++XX              ",
"             XX++++$$$++XX%%++%%%++%%XX++$$$$+++XX              ",
"             XX++++$$$++XX%%++%%%++%%XX++$$$$+++XX              ",
"               XX++$++XXXX$$++$$$++$$XXXX++$$+XX                ",
"               XX++$++XXXX$$++$$$++$$XXXX++$$+XX                ",
"                 XXXXX$$++XXXX+++XXXX++$$XXXXX                  ",
"                 XXXXX$$++XXXX+++XXXX++$$XXXXX                  ",
"                    ..++$$$$+++++$$$$$$++..                     ",
"                    ..++$$$$+++++$$$$$$++..                     ",
"                      ..XX++XX++$$$$$++XX..                     ",
"                      ..XX++XX++$$$$$++XX..                     ",
"                          ......+++++++++..                     ",
"                          ......+++++++++..                     ",
"                                ...XXXX..                       ",
"                                XOO##OOXX                       ",
"                                XOO##OOXX                       ",
"                                 XX##XX        z                ",
"                         z       XX##XX       l                 ",
"                          l      XXOOXX      k                  ",
"                            k    XXOOXX    h                    ",
"                               h  9, 9, 9,                      ",
"                                9,z  z 9,                       ",
"                                                                ",
"                                                                ",
"                                                                ",
"                                                                ",
"                                                                ",
"                                                                ",
"                                                                ",
"                                                                "
};
