/* XPM */
static char *_e159f3de4dd434e814498898d160a4fPLHP0RnhSsbXyW4b[] = {
/* columns rows colors chars-per-pixel */
"64 64 10 1 ",
"  c None",
". c #222121",
"X c #3A3737",
"o c #5C1F1A",
"O c #9E3E37",
"+ c #827C7C",
"@ c #C84141",
"# c #CF7B49",
"$ c #B7B3B2",
"% c #EFE9E7",
/* pixels */
"                                                                ",
"                                                                ",
"                                                                ",
"                                                                ",
"                                                                ",
"                                                                ",
"                                                                ",
"                                                                ",
"                                                                ",
"                                                                ",
"                                                                ",
"                                                                ",
"                                                                ",
"                                                                ",
"                                                                ",
"                            OO@@@OO                             ",
"                            OO@@@OO                             ",
"                          ++ooOOOoo++                           ",
"                          ++ooOOOoo++                           ",
"                        ++%%ooOOOoo%%++                         ",
"                        ++%%ooOOOoo%%++                         ",
"                      ++$$%%$$ooo$$%%$$++                       ",
"                      ++$$%%$$ooo$$%%$$++                       ",
"                      ++%%%%%%ooo%%%%%%++                       ",
"                    XX$$%%%%%%%%%%%%%%%$$XX                     ",
"                    XX$$%%%%%%%%%%%%%%%$$XX                     ",
"                   X$$$$%%%%%%%%%%%%%%%$$$$XX                   ",
"                   X$$$$%%%%%%%%%%%%%%%$$$$XX                   ",
"                 XX+$$$$$$%%%%%%%%%%%$$$$$$++X                  ",
"                 XX+$$$$$$%%%%%%%%%%%$$$$$$++X                  ",
"                 ++$$$%%$$$$%%%%%%%$$$$%%$$$$X                  ",
"                 ++$$$%%$$$$%%%%%%%$$$$%%$$$$X                  ",
"               XX$$%$$%%%%%%%%%%%%%%%%%%%$$%%$XX                ",
"               XX$$%$$%%%%%%%%%%%%%%%%%%%$$%%$XX                ",
"               ++%%%++%%%%%%%%%%%%%%%%%%%++%%%++                ",
"               ++%%%++%%%%%%%%%%%%%%%%%%%++%%%++                ",
"             ++$$%%%XX%%%%%%%%%%%%%%%%%%%XX%%%$$++              ",
"             ++$$%%%XX%%%%%%%%%%%%%%%%%%%XX%%%$$++              ",
"             ++%%%%$++$$%%%%%%%%%%%%%%%$$++$$%%%++              ",
"             ++%%%%$++$$%%%%%%%%%%%%%%%$$++$$%%%++              ",
"             ++%%$$%$$$$%%%%%%%%%%%%%%%$$$$%%$%%++              ",
"             ++%%$$%$$$$%%%%%%%%%%%%%%%$$$$%%$%%++              ",
"             XX$$%%$$$++%%%%%%%%%%%%%%%++$$$$%$$XX              ",
"             XX$$%%%$$XX%%%%$$%%%$$%%%%XX$$%%%$$XX              ",
"             XX$$%%%$$XX%%%%$$%%%$$%%%%XX$$%%%$$XX              ",
"             XX++$$%%%XX$$%%$$%%%$$%%$$XX%%%%$++XX              ",
"             XX++$$%%%XX$$%%$$%%%$$%%$$XX%%%%$++XX              ",
"             XX++++$$$++XX%%++%%%++%%XX++$$$$+++XX              ",
"             XX++++$$$++XX%%++%%%++%%XX++$$$$+++XX              ",
"               XX++$++XXXX$$++$$$++$$XXXX++$$+XX                ",
"               XX++$++XXXX$$++$$$++$$XXXX++$$+XX                ",
"                 XXXXX$$++XXXX+++XXXX++$$XXXXX                  ",
"                 XXXXX$$++XXXX+++XXXX++$$XXXXX                  ",
"                   X++++++$$+++++++$$++++++XX                   ",
"                   X++++++$$+++++++$$++++++XX                   ",
"                    ..++$$$$$$XXX$$$$$$++..                     ",
"                    ..++$$$$$$XXX$$$$$$++..                     ",
"                      XXXXXX.......XXXXXX                       ",
"                      XXXXXX.......XXXXXX                       ",
"                      XXOOOOXX   XXOOOOXX                       ",
"                      XXOOOOXX   XXOOOOXX                       ",
"                        XX##XX   XX##XX                         ",
"                                                                "
"                                                                ",
};
