/* XPM */
static char *result[] = {
/* columns rows colors chars-per-pixel */
"64 64 16 1 ",
"p c #222121",
". c #3A3737",
"X c #5C1F1A",
"o c #9E3E37",
"O c #827C7C",
"+ c #C84141",
"@ c #CF7B49",
"# c #B7B3B2",
"$ c #EFE9E7",
"  c None",
"l c #DDDDDD",
"z c #F1F1F1",
"k c #CBCBCB",
"h c #A2A2A2",
"9 c #868686",
", c #606060",
/* pixels */
"                                                                ",
"                                                                ",
"                                                                ",
"                                                                ",
"                                                                ",
"                                                                ",
"                                                                ",
"                                                                ",
"                                                                ",
"                                                                ",
"                                                                ",
"                                                                ",
"                                                                ",
"                                                                ",
"                                          ,9khlz                ",
"                                                                ",
"                                                                ",
"        XXXX                       ,9khlz                       ",
"        XXXX                                                    ",
"      XXoo++oXX                                                 ",
"      XXoo++oXX              ,9khlz                             ",
"      XX....oXX                                                 ",
"    OO$$$$$$$##                                                 ",
"    OO$$$$$$$##                                                 ",
"  ppp$$$$##ppp$$$OO                                             ",
"  ppp$$$$##ppp$$$OO                                             ",
" p@@@@$$OOppp$$$##OOOOOO..                      OO.             ",
" p@@@@$$OOppp$$$##OOOOOO..                      OO.             ",
"po@@@@$$$$$$$$$$$##$$$$##...........         OO$$#....          ",
"po@@@@$$$$$$$$$$$##$$$$##...........         OO$$#....          ",
" poooooo##$$$$$$$$$##$$$$$$$########.....OOOO$$##$####..        ",
" poooooo##$$$$$$$$$##$$$$$$$########.....OOOO$$##$####..        ",
"  pppppp$$$$$$$$$$$$$OOOOOO#$$$$#########$$$$$$##$$#$$OO..      ",
"  pppppp$$$$$$$$$$$$$OOOOOO#$$$$#########$$$$$$##$$#$$OO..      ",
"    ..##$$$$$$$$$$$$$$$##O..OO##$$####$##$$##$$##$$$OO..        ",
"    ..##$$$$$$$$$$$$$$$##O..OO##$$####$##$$##$$##$$$OO..        ",
"      ..##$$$$$$$$$$$$$$$$$$$$OO....OOO##$$$$$$$$$OO..          ",
"      ..##$$$$$$$$$$$$$$$$$$$$OO....OOO##$$$$$$$$$OO..          ",
"      ..####$$$$$$$$$$$$$$$$$$$$$$$$###..$$$$$$$$$OO..          ",
"      ..####$$$$$$$$$$$$$$$$$$$$$$$$###..$$$$$$$$$OO..          ",
"        ..OO#OO##$$$$$$$$$$$$$$$#######ppp##$$$$$$O..           ",
"          ..#OOppp##$$$$$$$$$$$$$$$$$$$#ppp######OO.            ",
"          ..#OOppp##$$$$$$$$$$$$$$$$$$$#ppp######OO.            ",
"          ..O##ppp####$$$$$$$##########p####OOOOppp             ",
"          ..O##ppp####$$$$$$$##########p####OOOOppp             ",
"            p##OOppp####$$$$$$$$$$$####p##OOOOppp               ",
"            p##OOppp####$$$$$$$$$$$####p##OOOOppp               ",
"             pppOOOOpppppp#####$$####ppppppOOOOOppp             ",
"             pppOOOOpppppp#####$$####ppppppOOOOOppp             ",
"               pppOOOOOOppppppppppppppppOOOOOOOppp              ",
"               pppOOOOOOppppppppppppppppOOOOOOOppp              ",
"                 ppppppOOOOOOOOOOOOOOOOOpppp                    ",
"                 ppppppOOOOOOOOOOOOOOOOOpppp                    ",
"                 pppOO#####OOOOpppppppppppp                     ",
"                 pppOO#####OOOOpppppppppppp            z        ",
"             pppppppppoo@@##OOOppppppOOppp            l         ",
"             pppppppppoo@@##OOOppppppOOppp           k          ",
"            p@@@@@@@@oopppppppppppppppp             h           ",
"            p@@@@@@@@oopppppppppppppppp          ,9khlz         ",
"             ppppppoo@@ppp  poooopppppp       ,9khlz            ",
"                 pppooppp                                       ",
"                 pppooppp                                       ",
"                                                                ",
"                                                                "
};
