/* XPM */
static char *dbd166bb6ade44fb8841da8db65f2cd8hFpGg39bh6cjtTob[] = {
/* columns rows colors chars-per-pixel */
"64 64 190 2 ",
"   c None",
".  c #17060D",
"X  c #1A070D",
"o  c #1C0716",
"O  c #220D13",
"+  c #230D1C",
"@  c #2F1917",
"#  c #27121F",
"$  c #240925",
"%  c #2D0E2C",
"&  c #2D0E27",
"*  c #310F2E",
"=  c #281023",
"-  c #2D1923",
";  c #311D20",
":  c #2D0E33",
">  c #2F0E38",
",  c #320E33",
"<  c #320F3B",
"1  c #39163B",
"2  c #38183D",
"3  c #35163A",
"4  c #37202D",
"5  c #3B262B",
"6  c #3E2829",
"7  c #3D2536",
"8  c #432B2C",
"9  c #462C32",
"0  c #432B3B",
"q  c #47303A",
"w  c #4D353D",
"e  c #4D3334",
"r  c #51373E",
"t  c #351143",
"y  c #3F1848",
"u  c #312447",
"i  c #421D45",
"p  c #431949",
"a  c #491655",
"s  c #451953",
"d  c #4A1A5A",
"f  c #471552",
"g  c #4B254A",
"h  c #4D2B4B",
"j  c #442445",
"k  c #512949",
"l  c #4C3345",
"z  c #4E3249",
"x  c #543747",
"c  c #52324E",
"v  c #593B4B",
"b  c #4C2650",
"n  c #522E54",
"m  c #532657",
"M  c #4F3059",
"N  c #4B375A",
"B  c #533351",
"V  c #54325C",
"C  c #533D59",
"Z  c #673041",
"A  c #723E48",
"S  c #682859",
"D  c #70355F",
"F  c #70395E",
"G  c #4C1B61",
"H  c #571C6E",
"J  c #571D72",
"K  c #5B1E77",
"L  c #4F2264",
"P  c #552B64",
"I  c #4A3D61",
"U  c #593761",
"Y  c #733862",
"T  c #6C207F",
"R  c #5F445F",
"E  c #594C6F",
"W  c #574869",
"Q  c #5C526E",
"!  c #7A5A6D",
"~  c #62517A",
"^  c #8A6271",
"/  c #8D6875",
"(  c #916B7C",
")  c #8A707C",
"_  c #90757B",
"`  c #5F2286",
"'  c #65248C",
"]  c #6B238B",
"[  c #642183",
"{  c #6D2693",
"}  c #692798",
"|  c #72279A",
" . c #75289C",
".. c #6E3C9A",
"X. c #7E329B",
"o. c #7229A3",
"O. c #7829A2",
"+. c #7C2BAA",
"@. c #7F2DB0",
"#. c #6C5E88",
"$. c #70598D",
"%. c #775996",
"&. c #7748A2",
"*. c #83328F",
"=. c #823797",
"-. c #842CA6",
";. c #8D3DAB",
":. c #8838A4",
">. c #8638B4",
",. c #8F5A8F",
"<. c #8E5F84",
"1. c #824593",
"2. c #894B93",
"3. c #8A4E9D",
"4. c #89459C",
"5. c #8D589F",
"6. c #8B529E",
"7. c #935D9C",
"8. c #916B84",
"9. c #91668D",
"0. c #937080",
"q. c #94708B",
"w. c #8F6198",
"e. c #926496",
"r. c #9B6E93",
"t. c #9D629D",
"y. c #9C6D9A",
"u. c #9F719E",
"i. c #874AA5",
"p. c #8A4CA3",
"a. c #8F42A8",
"s. c #8C4FA8",
"d. c #914DA4",
"f. c #9143AC",
"g. c #964FAD",
"h. c #8B54A2",
"j. c #8652AA",
"k. c #8E56A9",
"l. c #925BA5",
"z. c #9055A8",
"x. c #9956AA",
"c. c #935CAB",
"v. c #9356A7",
"b. c #8F42B4",
"n. c #8C45B9",
"m. c #8A49BA",
"M. c #964CB5",
"N. c #984FB5",
"B. c #934DBB",
"V. c #8F59B9",
"C. c #8E5AB2",
"Z. c #9953B6",
"A. c #9354BD",
"S. c #9A52B9",
"D. c #9C5CBD",
"F. c #9558B6",
"G. c #A15FB9",
"H. c #9160A0",
"J. c #9C67A1",
"K. c #9663AA",
"L. c #9769AA",
"P. c #9C6AA8",
"I. c #9A65B4",
"U. c #9F6EB2",
"Y. c #9760BA",
"T. c #A165A4",
"R. c #A569A9",
"E. c #A263B2",
"W. c #A36AB5",
"Q. c #A46BBB",
"!. c #A667BD",
"~. c #A172B3",
"^. c #AA71B7",
"/. c #9C63C1",
"(. c #9E6AC2",
"). c #A16CC3",
"_. c #A473C5",
"`. c #A77CC7",
"'. c #A878C6",
"]. c #AB7EC8",
"[. c #A68ABD",
"{. c #A98DBF",
"}. c #AA8EC0",
"|. c #AD93C2",
" X c #B096C4",
".X c #B39CC7",
"XX c #B59DC8",
"oX c #C0ADCF",
"OX c #C4B3D2",
"+X c #C7B8D4",
/* pixels */
"                                                                                                                                ",
"                                                                                                                                ",
"                                                                                                                                ",
"                                                                                                                                ",
"                                                                                                                                ",
"                                                                                                                                ",
"                                                          x   B                                                                 ",
"                                                        n 9         C w                                                         ",
"                                                        V j h i z k C                                                           ",
"                                                    b y i : 2 y n m B 9 v                                                       ",
"                                                    g t + > $ & O t 2 0 h                                                       ",
"                                                  8 e a + p K ' | + . o t j                                                     ",
"                                                U 6 @ f { :.a.x.p. .} ] 1 1 k                                                   ",
"                                            w w > d @ ` | ;.d.H.e.:.d.x.-. .g                                                   ",
"                                          c l 0 % d K +.X.h.6.t.e.9.e.x.;.O.X 6 R                                               ",
"                                          c z 0 % ' o.>.X.M.x.r.( / 8.x.d.O.J 5 V                                               ",
"                                          B y < H N.N.1.3.v.K.r.y.( r.r.S.=.o.f t 9                                             ",
"                                          B t $ b.D.h.6.D.D.K.E._._.Q.W.A.=.-.o.G j                                             ",
"                                      w w 8 X [ M.v.i.G.~.D.!.(._._.).).I.3.1.f.;.0                                             ",
"                                      w l - s { Z.h.i.L.W.U.(.(.$.~ j.).D.Z.M.1.S.X i                                           ",
"                                      w   * s { Z.h.i.L.U.).)...I N j._.(.I.Q.s.S.J t                                           ",
"                                          : ' @.l.k.M.L.)._.A.A./.D.u &._._.~.I.x.;.X 6                                         ",
"                                        M $ o.n.7.S.S.E.).n./.A.(.Y.n./.C.(.W.I.l.f.s -                                         ",
"                                          = A.x.7.P.u.!.B.B.(.).)./.m./.(.D.~.U.c.3.' -                                         ",
"                                        O d =.a.,.q.u.Y.Q A.).).(.'.(._.'./.^.Q.D.2.o.#                                         ",
"                                        O T Z ! ^ E._.V.).).'.'.'.}.[.].'./._.^.J.D.7.d                                         ",
"                                    w c . T Z ! ^ E.).V.).).'.[.}.|.|.}.]./.#.^.q.J.y.>.E                                       ",
"                                    q 7 y ] A ) t.D._.$._._.].{.|..X.X}.].(./._._.<.y.*.W                                       ",
"                                    B V : o.D W.!./.(.E _.'.{.|..XOXoX}.}.(./._._.H._ S . x                                     ",
"                                    V V , } F T.I.(.(.W _._.}. X.X+XoX|.[.(.(./.`.l.0.A i x                                     ",
"                                    P P , } F R.E.(.).E _._.}. X.X+XOX X}.).(.%.`.Y.W.Y 1 4                                     ",
"                                    m L , } F R.E.).%.E )._.}. X.X+XOX X}.)./.%.].I.R.F 2 V n                                   ",
"                                    M P , } F R.!.(.(.E ).).}. XXX+XOX|.}.).).%.`.I.W.Y 1 4                                     ",
"                                    V V , } F T.I.(.(.W '.'.}.|.XX+XoX|.[.).(.(.`.c.8.A i x                                     ",
"                                    V V *  .F W.G.(.(.E _.'.}.|..XOXoX}.}./.D._._.c._ S X x                                     ",
"                                    q 7 y ] A ) 7./.).$._.'.].}.|..X.X}.'.(./._._.<.y.*.R                                       ",
"                                    w c X T Z ! ^ E.).F.).).'.[.}.|.|.}.].(.#.).8.J.y.>.E                                       ",
"                                        O ] Z ! ^ E.).V.).).'.'._.[.}.}.'./._.^.J.G.7.d                                         ",
"                                        O d =.:.,.8.u.).Q A.).(.).'.)._._.(.^.W.D.2.o.#                                         ",
"                                          # A.Z.t.P.y.!.B.B.(.).).D.m.(.(.D.~.W.x.3.' -                                         ",
"                                        M $ o.n.5.S.S.W.).n./.A.).D.n./.C.(.~.I.l.f.s -                                         ",
"                                          : ' @.z.k.Z.L.).).A.A./.D.u &._.).~.I.c.a.X 6                                         ",
"                                      r   : s { Z.h.i.P.W._.(...I N j.).).I.Q.j.S.J t                                           ",
"                                      w l ; s ' S.h.i.P.~.U.).(.$.#.j.).G.Z.M.4.Z.X i                                           ",
"                                      w w 8 X [ N.v.i.Y.U.D.G.).(._.)._.K.3.1.f.b.7                                             ",
"                                          B t $ f.Z.5.6.D.D.K.E._.(.(.W.S.=.-.o.G j                                             ",
"                                          c y < J B.Z.1.3.v.J.r.y.( r.r.S.X.o.f t 9                                             ",
"                                          c z 0 % ' o.>.=.M.x.r.8./ 8.x.k.O.J 5 V                                               ",
"                                          c z 0 % d K +.X.p.3.J.e.9.e.v.;.O.X 6 R                                               ",
"                                            w w : d @ '  .;.d.l.e.4.d.g.-.| h                                                   ",
"                                                V 6 @ a } :.a.x.d. .} ] 1 1 k                                                   ",
"                                                  8 e a + p K '  .+ . o t 0                                                     ",
"                                                    g t $ : $ % O t 1 0 g                                                       ",
"                                                    h i y : 2 y b m V 9 v                                                       ",
"                                                        V j z i z k C                                                           ",
"                                                        M 9         C w                                                         ",
"                                                          r   B                                                                 ",
"                                                                                                                                ",
"                                                                                                                                ",
"                                                                                                                                ",
"                                                                                                                                ",
"                                                                                                                                ",
"                                                                                                                                ",
"                                                                                                                                "
};
