/* XPM */
static char *dbd795a6a49745d1a942b8f383a6a243VwyNPqkLlhO5Yq5d[] = {
/* columns rows colors chars-per-pixel */
"64 64 195 2 ",
"   c None",
".  c #1E1900",
"X  c #1C1700",
"o  c #2E0C00",
"O  c #390D01",
"+  c #291A05",
"@  c #3B1A04",
"#  c #361705",
"$  c #1F2201",
"%  c #222100",
"&  c #262A09",
"*  c #2B2106",
"=  c #29380F",
"-  c #342C13",
";  c #393618",
":  c #440400",
">  c #4A0600",
",  c #550101",
"<  c #5D0D09",
"1  c #5D0F03",
"2  c #401201",
"3  c #4A150B",
"4  c #471908",
"5  c #541C0E",
"6  c #541507",
"7  c #5C1B12",
"8  c #6A0A03",
"9  c #690B05",
"0  c #710803",
"q  c #790506",
"w  c #781A18",
"e  c #592617",
"r  c #43361D",
"t  c #5C371C",
"y  c #522813",
"u  c #682716",
"i  c #53182C",
"p  c #4C3D24",
"a  c #4F3520",
"s  c #573F27",
"d  c #5A3D28",
"f  c #5C3725",
"g  c #6C2721",
"h  c #682A23",
"j  c #673227",
"k  c #633833",
"l  c #3B441D",
"z  c #3E4320",
"x  c #7E4A13",
"c  c #7A771D",
"v  c #4D4F24",
"b  c #454A24",
"n  c #59472C",
"m  c #4D5326",
"M  c #54522D",
"N  c #5E502D",
"B  c #595A2F",
"V  c #565630",
"C  c #614027",
"Z  c #635631",
"A  c #69483B",
"S  c #692E42",
"D  c #6D3146",
"F  c #793A48",
"G  c #793E52",
"H  c #6A404A",
"J  c #7A4456",
"K  c #8D0002",
"L  c #910102",
"P  c #9B000C",
"I  c #A00E00",
"U  c #AF000B",
"Y  c #AA0003",
"T  c #B4000D",
"R  c #BC000B",
"E  c #BF0C0C",
"W  c #AB0011",
"Q  c #BF0019",
"!  c #BD1A16",
"~  c #AF2B12",
"^  c #B13017",
"/  c #BB1C3A",
"(  c #AF2E29",
")  c #BB342A",
"_  c #BB3B3A",
"`  c #B73B32",
"'  c #AC372C",
"]  c #C3000C",
"[  c #CB000C",
"{  c #CC0200",
"}  c #CB0016",
"|  c #CD0019",
" . c #C10018",
".. c #DB0413",
"X. c #C41716",
"o. c #D21B18",
"O. c #D00D08",
"+. c #CB261F",
"@. c #DC1B23",
"#. c #E10F2B",
"$. c #E11D32",
"%. c #CF2823",
"&. c #C22B2E",
"*. c #DA292D",
"=. c #D62927",
"-. c #CE352F",
";. c #C52B31",
":. c #DC2D31",
">. c #C43333",
",. c #CA3C38",
"<. c #DA3132",
"1. c #DA3A39",
"2. c #E1293A",
"3. c #E12439",
"4. c #845C24",
"5. c #885D24",
"6. c #BE443E",
"7. c #A84834",
"8. c #836027",
"9. c #C6453A",
"0. c #C04032",
"q. c #BF3F40",
"w. c #CA3445",
"e. c #CE3C47",
"r. c #DD3C41",
"t. c #D53749",
"y. c #DA3850",
"u. c #C12946",
"i. c #E12C43",
"p. c #E13B4C",
"a. c #E13244",
"s. c #9F475F",
"d. c #884358",
"f. c #BC4542",
"g. c #B54F48",
"h. c #AB5B4F",
"j. c #BF504D",
"k. c #B05E49",
"l. c #A9455B",
"z. c #B0435E",
"x. c #85744F",
"c. c #9F774F",
"v. c #A16148",
"b. c #B6684C",
"n. c #A86553",
"m. c #BE6B53",
"M. c #B56753",
"N. c #AD7A5D",
"B. c #A7745B",
"V. c #96506A",
"C. c #AF7A62",
"Z. c #C44142",
"A. c #CB4A4D",
"S. c #DA4141",
"D. c #D64C4E",
"F. c #CD5347",
"G. c #CE554C",
"H. c #D74552",
"J. c #C15453",
"K. c #CF5853",
"L. c #CA5A5A",
"P. c #CC5658",
"I. c #D55755",
"U. c #E1414F",
"Y. c #E14454",
"T. c #E14956",
"R. c #E14C5C",
"E. c #E1455A",
"W. c #E1515D",
"Q. c #C8615D",
"!. c #C8675D",
"~. c #E14E62",
"^. c #E15364",
"/. c #E15967",
"(. c #E1576A",
"). c #E15C6B",
"_. c #E16473",
"`. c #7D842C",
"'. c #9E865F",
"]. c #9A9359",
"[. c #A9815E",
"{. c #A1865E",
"}. c #9C9868",
"|. c #938B68",
" X c #A68362",
".X c #CF7B89",
"XX c #CE7885",
"oX c #D17C8A",
"OX c #D3838F",
"+X c #D38592",
"@X c #D68E9A",
"#X c #D68B97",
"$X c #DBA2AB",
"%X c #DEACB4",
"&X c #DDA7B0",
/* pixels */
"                                                                                                                                ",
"                                                                                                                                ",
"                                                                                                                                ",
"                                                                                                                                ",
"                                                                                                                                ",
"                                                                                                                                ",
"                                                                                                                                ",
"                                                                                                                                ",
"                                                                                                                                ",
"                                                                                                                                ",
"                                                                                                                                ",
"                                                                                                                                ",
"                                                                                                                                ",
"                                                                                                                                ",
"                                                                                                                                ",
"                                                                                                                                ",
"                                                                                                                                ",
"                                                                                                                                ",
"                                                                                                                                ",
"                                                      M M j j w u w j j v M                                                     ",
"                                      V V V           C r g u w q w g g r n           V V V                                     ",
"                                      M n     h   & & . < @ 2 @ 2 2 2 @ 6 . & &   h     V M                                     ",
"                              d f f f b ; O O o * q I P U | Q Q  .Q  .| U I I q # o O O ; z f s d f                             ",
"                            M n n < , . 9 9 T | 2.^ c c `.4.8.8.8.8.4.4.`.c c ^ i.| T 9 8 + , < n s M                           ",
"                            M p p > o Y T T ..$.,.o.x.x.|.G.m.m.m.m.m.G.|.x.x.X.-.$...T T Y o > p b M                           ",
"                          j > # # L @.*.<.<.6.g.k.v.].].M.r.F.F.G.G.G.S.M.].].v.k.g.9.<.<.=.@.K # # > g                         ",
"                        z l 0 0 W *.,.Z._ >.t.<.M. XF.F.Y.E.R.~.~.~.~.E.U.F.F.'.m.2.w._ _ w.9.:.T 0 9 z b                       ",
"                    e 7 m = = P | *.f.&.;.;.*.<.C.C.W.I.(.~.~.^.l.^.~.~.^.^.^.C.N.:.*.;.;.&.6.*.| P = = m 7 u                   ",
"                    5 , 9 9 W ....' ` S.J.J.J.G.D.Y.y.y.l.G G G G J F J l.y.y.T.D.G.K.J.j.S.` ( ....W 8 8 , y                   ",
"                h g 5 + + R ] E ! _ 1.L.L.P.T.E.3.J W.R./././.W.^.^.^././.H.^.J 3.T.T.P.L.L.1.` ! X.] R + + 5 g h               ",
"              B v t O : 1 O.o.) *.,.r.r.I.^.^.3.2.a.W.W./.).).^.^.^./.)./.^.R.a.2.3.^.^.P.p.r.e.*.) o.O.1 > : r v B             ",
"                  f 3 o L +.>.6.9.J.j.S.~.~.t.p.R.W.).)._..XoXoXoXoXoXoX_.).).^.T.Y.a.~.~.9.j.j.9.6.) +.L o 3 f                 ",
"              C   7 < # T 9.g.M.[.[.G.R.E./ a.p.R.R.)..X.X+X+X#X+X+X+X+XoX.X).R.R.p.i./ R.T.K.[.[.M.g.9.U # < 5   C             ",
"                  s f % ] ) n.n.'.N.(.(.s.D Y.R.R.R.(.oX+X@X@X@X@X@X@X@XOXoX).R.R.R.Y.D s.(.^.[.'.n.n.>.] * f s                 ",
"                  f u , * ] ) c.].].^.(.d.S p.p.T.).XX+X@X&X%X%X%X%X%X&X@X+XXX).Y.p.p.S d.(.(.].].B.) ] * , u t                 ",
"                k k j 3 X R ,.h. X XT.~.w.w.i $.2.^.XX+X#X$X$X&X%X&X&X$X@X+XXX^.2.$.i w.w.R.T.C.'.n.0.R X 3 j k k               ",
"                V   v r + Y -.9.9.[.K.W.W.^.u.Y.T.^._.oXoXoX+X+X+X+X+XoXOXoX_./.E.p.u.(.R.I.K.[.9.9.-.Y + t v   M               ",
"                    Z t , 4 { o.9.<.<.A.r.~.(.e.E.).)._._.XX.XoX.XoXoX.X_._././.R.e.(.~.r.A.<.<.>.o.{ 4 , t Z                   ",
"                        p 3 R [ [ X.! ` <.A.^.~.p.T.T.T.R.T.R.W.~.W.R.T.T.T.T.T.p.R.^.H.<.` X.X.[ [ R 4 p                       ",
"                          t e $ L | { ' =.D.Q.Q.L.I.).V.p.Y.R.T.Y.R.R.Y.p.V./.I.Q.Q.Q.D.=.' { } K $ e C                         ",
"                              b r 8 } %.) >.A.A.K.L.!.I.^.(.T.z.z.z.E.(.(.I.!.I.L.A.A.>.( %.| 8 ; b                             ",
"                              A h , q @.*.:.f.e.t.<.M. X(.)._._._._._.(.(.'.M.<.e.Z.Z.<.*.@.q , j A                             ",
"                                  m y r + K o.%.7.7.S.b.B.f.f.H.H.H.f.f.c.b.S.7.7.%.o.K + r y v                                 ",
"                                        y , % < T | M.N.N.}.}.K.m.K.}.}.N.N.M.| T 9 % , y                                       ",
"                                            z - - * 0 #.~ x `.5.8.8.`.x ~ #.0 * - - b                                           ",
"                                                      F H . 5 4 3 4 5 . H F                                                     ",
"                                                          N N r j ; N N                                                         ",
"                                                                h                                                               ",
"                                                                                                                                ",
"                                                                                                                                ",
"                                                                                                                                ",
"                                                                                                                                ",
"                                                                                                                                ",
"                                                                                                                                ",
"                                                                                                                                ",
"                                                                                                                                ",
"                                                                                                                                ",
"                                                                                                                                ",
"                                                                                                                                ",
"                                                                                                                                ",
"                                                                                                                                ",
"                                                                                                                                ",
"                                                                                                                                ",
"                                                                                                                                "
};
