/* XPM */
static char *result[] = {
/* columns rows colors chars-per-pixel */
"64 64 45 1 ",
"  c #1B4601",
". c #1E4D01",
"X c #1F5001",
"o c #204702",
"O c #214E03",
"+ c #2A4E05",
"@ c #2C4F09",
"# c #235304",
"$ c #2B5405",
"% c #265A05",
"& c #2A5C06",
"* c #265409",
"= c #2A550A",
"- c #275A09",
"; c #2B5C0B",
": c #305607",
"> c #305B06",
", c #31560A",
"< c #325D0D",
"1 c #395D0F",
"2 c #2E5E11",
"3 c #335E11",
"4 c #3B5E12",
"5 c #3E5F18",
"6 c #2D6105",
"7 c #2D620C",
"8 c #2F680C",
"9 c #326306",
"0 c #326906",
"q c #33630D",
"w c #3A640E",
"e c #346A0D",
"r c #396D0E",
"t c #37700E",
"y c #2F6211",
"u c #326312",
"i c #3C6312",
"p c #356A11",
"a c #3A6B13",
"s c #3F6118",
"d c #3D7314",
"f c #416417",
"g c #416519",
"h c #407417",
"j c #407418",
/* pixels */
";2=;*..***X*...X****#****@***  ooO.*****@**#**@#.O..****.**.22*2",
";=2=..*.****..XX#*#*****@*#@...O..  *********#**....***.*..X-22*",
"2**2.**X****.X..**%*#**-=****...O.******=-=##-**#.#XX***XX**2**2",
"**2*.*X*X****..****#&;&=-*-*.*..OO.*2***-;;;#-*=.OXX-*****XX-2**",
".....**X22222222*%&#2uuu=***XX.*.*.****2uuu2#-%-2222y2u2*X*X....",
"....*XX*2yy2-22**%*$2uuy=-***X.#.XXX****uuu3*-&%222;yy22X*X*....",
"....*X**2222-22*&%--yyyy;*%*#XXX.X.**-*2uuuq%-%%2;y232u2-X.*....",
"....*XXXyy222222#*--2upy;=-**XXXXX.*--X2pup;&&%%;22;yuuuX**-*...",
"**-2XXXX**-Xyyyy%%#%7777--2-%X##-XX;;;&;u7776X6%uuuy%##%XXX--y-*",
"2222XXXXX.XXyyuu%%X%%677;;;;%###X-X-2;;777776XX6uuupXXXXXXXX8y--",
"=;2yXXXX.XXXuuuu%%%%6777q;;y-#*%%X-22;;78y66%%%%uuuu#XX%XXXXy22-",
";;2yXXXX.**Xuuuu%6X--7777;;7%#*%--X-q;q78776%%6-paupX%#XX%X%y222",
"2222X--X-XXXuuuu&&%&&6;;;3;3-=----&;uuuq777&%%&&uyyu%#%#-&--yu22",
"22uu7-27--X-uuyy&&&&;;&;q<3222<;;y;uuuqq777777&&yyyy*%%-y7;;yy22",
"22uu-7-7X----y2y;&&;;&;;;qu<<=<;2;;2epuq67776&&-7-22%-%#;&-;uu22",
"22uu-7--%---y222&&&&;;;=<337;==:;;;<quaq7767&-&&22-2%%%%;722au22",
"OO#X7;7q--&-&-&*####>iuu<77;-OOOO$#&qpqepaaq$%##X-----;&q77uX##X",
"..#X77q;7&7-&---##$#=uuu<q2<*oOOOO#&qepeaaa<####-X**---;q;;qX#..",
"..#.77;u%&7-7%--###O=343<;&<$oOOOO#&qeeeaai7#%#O***----&77;7X#O.",
"#X##7u777-%-%-&-$##O<3u3q;,$#ooooO#&899epaaw###O**-X%--7u7qu##X#",
"..%X77u77776%%&%#+#+=333;&>&*oooo#O&099waauq*$##XX##%&&;u7yyX%..",
"*-&&uqqu7777#%##;3;;<<<<$$$O*===:,<&&&69iuqeu<;<.##X77y7quq8&&%*",
"**&&qyyee777%%##u<<<;<,3$#$+$,,=;<<>>&69ewieq<<<XX##77777uqq&&**",
"*%&77py877eq%$%*<u33<3<<$#$*====,;<q&&&&eewueuuu*#*#yyy7yeq77&*%",
"%%&;y88py88y&&&%uu<q<q,q*$$#,,3,34qq>&>6wwewqqu3%%6X88888888----",
"*#&6pppp--7-777qq3q<<>>&$+++,5544sf1:$$&999qeqqu77y7--%%appp7-X*",
"---%p88p%8--7<7q3q<w<<<<:$+:45ssfggi>>>>w9wqequq2778---%upyp---X",
"XXX6pppp%---q;37qq<3<<>,$$+:5fffgggs:$$>q9qwieeuq778--%%pppp--2X",
"---78888%%X--72<3<<<<,<1::::4ffffffw>>>9ww99ewqq7<;;%--%8888--X-",
"22y-7-8-XX.X-X**<<<<>&::114111111>fffffw99>qwqqq;&-%XXX 878-87-7",
"X--y-%8- X.XX--==,;,$:,>1111111111wwwwwww99>qqq<<-;-XXXX--7-y---",
"2-y7-8%%    -2X=,=<=$$>:>11111111fwwfwfw9w>99qq<&==#.   7---7y--",
"777--7--    **#O====$+$,,111144if1wwwfff99>9wqq<*==# .  ---8-7--",
"-X-77X2-    O**@@@=@+$@$,111111,119fiif9w9999<<;&$*O .  X7--y---",
"-y8---7-    **o@=@@@*+@=,41411441ff9fff099>qwq<<=*#O.   777--y-y",
"-X--y8yp..*.**==@==@@@@,=:@$1fffffff>>>9ww9qqwq<==**XXX*yy8y---X",
"*X--8yyyX*X-=*=*==@2=@=,@++:4ffggggi>::>w00qiqqq2===###Xyyy8--X-",
"**--y8yy*XX*=-=====@=$,:$+++4555sggi>:>>wweeequq;;=-O##*pyyy%--X",
"----yyyyX***==&*==2=;$:&++++,445sif1>$$&90weeuwu;-;=-#*#py8y----",
"XX--y7y72-;2#$##3223<<<&$#$+=3,,3uw9>6990rtrrruu*$##=;*-y87y--X-",
"-X-7-y777222#O##33uqq<w<&$#O$;=;;;qq&666trrrraau###Xy;2-2y7-----",
"---7yyy2;7;7####33qquqqq%$$+*===,<q>6660ttrharee*##X-2;;-722%-**",
"-X7Xy7;y;;7;X###uuuiuqqq&$#$$*=;;;;96660rrdrta0e##XX2;2;yy2y%&**",
"..XX;;2;;---%%&&-&>&eiaiq>&;#oooo##&000ehdhr6q&&%%##-***-2-y.#.O",
"XX#X;2;7=*%%-&&&&&&&uaaiq7&&#oooo##600etthhd66%%&%*#*#**;;;u##.X",
"..X.;;;;----&-&&&&66eaaaq7q6$OOOOO#900rtthhr66%%****#**-;;;;....",
"X.# 2;;2=-----&&%&&&uaapqqq<%OOO+##6epdthhdt66%#**##*##*;;;;..#.",
".##.2;;;-*----%%%%7&uaaapqqq&O#####6eprtdhdt67%%%*#*#*-*2;;;.##.",
"32uu-=-;#*X--2;;&7&7776qqeuq;;;;;;;7rppeeeee76%6;;;*X*XX--*;2222",
";232-*;*#X**-2-2&&&7;77;<uuq2;<;<77qeapp7e88867%;;2**.*X2---yu22",
"22yu-;-2####2-2;-%-%77677uq37777q77euppe8e88876%;22-X*X-2-;2uu22",
"2222#**X#X#.2222#%-%%6777quu7&7%&777upuee7866%6%yy22*X*X.**X2222",
";;-2....X...2222%#X%%77777<y&%%%%&%7yqqpe886%%%%uuuuO..XX.XX22;;",
"2=22.XX...X y2u2#XX%%-777;72-%%%%%%7y77888876%6%uu2u*.XXXX.X22;=",
";2;2X....X..2222X%XX-7&q7;;y-%#%%%X6yy77y876%%%*uuuu..XX.X.X222=",
"====XXX.*X*.2222*-X*-72u;&;;-%#%%%X%;7778877&%%&uuu2X*X*.#.X;*2*",
".. .**..2222*2*2##$*;uup7X--yXX*X%X%7-;7aauy2%%%2222y22yX#**....",
"..X...**2222*22**#*%;uuu22*7XXXXXXX*---7puay--&-2222y2y2##X*....",
"..X.XX*.22222=2***#*;uuu--2X2XXX%#X%--&7uuyy--%&-2222222X#.X....",
".. .X*.*2222*2=2*-*#7uuu2*X2XX.XXX#----2auuy%---22222yyy##*X....",
"22** X*..*** ..****#*2=*-*--*.X*##.*==---227--**..*.*-*.**..*-2*",
"--*2**.***** ** *##***-=-**=**XO...*=-=;-*-X--*-..XX****..**2**2",
"*222*...****.. .*@-#********oo.....********X****.*..*****.*.*22*",
"2*2*.X**.***.. ***#*#**@*****oo... .*#@**-******....**.*.*O.22*2"
};
