/* XPM */
static char *_e509b9c000e43ab9ab7014a6b53f776niW8fpqnaOiUsyCD[] = {
/* columns rows colors chars-per-pixel */
"64 64 53 1 ",
"  c None",
". c #3F3203",
"X c #423403",
"o c #423503",
"O c #433503",
"+ c #413406",
"@ c #423506",
"# c #443706",
"$ c #473803",
"% c #564404",
"& c #5E4A05",
"* c #5F4B05",
"= c #54440B",
"- c #54450D",
"; c #504418",
": c #624F0E",
"> c #6B5406",
", c #6F6542",
"< c #606060",
"1 c #C97F0B",
"2 c #CD850B",
"3 c #D18A0B",
"4 c #C99E0B",
"5 c #CCA10B",
"6 c #F2BF0C",
"7 c #ECBB10",
"8 c #D8B335",
"9 c #FDC70E",
"0 c #FFC90E",
"q c #E5CC6C",
"w c #868686",
"e c #96938C",
"r c #98968E",
"t c #9B988D",
"y c #A39E8C",
"u c #A49E8E",
"i c #A5A08D",
"p c #ACA58E",
"a c #B4A78C",
"s c #B6AC8C",
"d c #B7AD8C",
"f c #B6AD8E",
"g c #B8AD8C",
"h c #B9AD8C",
"j c #B2AD9A",
"k c #B8B195",
"l c #B7B49A",
"z c #A2A2A2",
"x c black",
"c c #CBCBCB",
"v c #DDDDDD",
"b c #F1F1F1",
"n c white",
/* pixels */
"                                                                ",
"                                                                ",
"                                                                ",
"                                                                ",
"                                                                ",
"                                                                ",
"                                                                ",
"                                                                ",
"                                                                ",
"                                                                ",
"                                                                ",
"                                                                ",
"                                                                ",
"                                                                ",
"                                                                ",
"                                                                ",
"                                                                ",
"                                                                ",
"                                                                ",
"                                                                ",
"                                   <w                           ",
"                                     z                          ",
"                             @@.@ <w  c                         ",
"                          ...1111.. w  v                        ",
"                          ..11100... z  b                       ",
"                          ..11100...  c                         ",
"                         .116996000..                           ",
"                        ..66x6666004.                           ",
"                        .1xxnxxx60088..                         ",
"                        @066xnn600088...                        ",
"                        @066xnn600088...                        ",
"                        #1006xx66000844.                        ",
"                        *200697900....$.                        ",
"                        53009990...000...                       ",
"                        53909900...000...                       ",
"                       :::.9990%>:800xx00,                      ",
"                      ::xx9*%%0O88000nx00.                      ",
"                      :xnn98OX0X8880066...                      ",
"                      .66698.@7...88800..                       ",
"                      .66908.@7...88800..                       ",
"                      ..88qXg=-..;.qq8.@+                       ",
"                       X...Xddjkaa....                          ",
"                          eydfgdyyr                             ",
"                       l    yupitt                              ",
"                       l    uupitt                              ",
"                                                                ",
"                                                                ",
"                                                                ",
"                                                                ",
"                                                                ",
"                                                                ",
"                                                                ",
"                                                                ",
"                                                                ",
"                                                                ",
"                                                                ",
"                                                                ",
"                                                                ",
"                                                                ",
"                                                                ",
"                                                                ",
"                                                                ",
"                                                                ",
"                                                                "
};
