/* XPM */
static char *d326db71a8194fd2f5564d5146b294c6WJKYMOgExGKGPMrz[] = {
/* columns rows colors chars-per-pixel */
"64 64 49 1 ",
"  c None",
". c #3F3203",
"X c #413303",
"o c #423403",
"O c #433503",
"+ c #423504",
"@ c #423505",
"# c #413406",
"$ c #423506",
"% c #443706",
"& c #564404",
"* c #524209",
"= c #53430B",
"- c #524518",
"; c #624F0E",
": c #6B5406",
"> c #6F6542",
", c #606060",
"< c #C97F0B",
"1 c #C99E0B",
"2 c #F2BF0C",
"3 c #D8B335",
"4 c #D8B436",
"5 c #FDC70E",
"6 c #FFC90E",
"7 c #DDBE4E",
"8 c #E5CC6C",
"9 c #868686",
"0 c #96938C",
"q c #98968E",
"w c #9B988D",
"e c #A39E8C",
"r c #A49E8E",
"t c #A5A08D",
"y c #ACA58E",
"u c #B4A78C",
"i c #B6AC8C",
"p c #B7AD8C",
"a c #B6AD8E",
"s c #B9AD8C",
"d c #B2AD9A",
"f c #B8B195",
"g c #B7B49A",
"h c #A2A2A2",
"j c black",
"k c #CBCBCB",
"l c #DDDDDD",
"z c #F1F1F1",
"x c white",
/* pixels */
"                                                                ",
"                                                                ",
"                                                                ",
"                                                                ",
"                                                                ",
"                                                                ",
"                                                                ",
"                                                                ",
"                                                                ",
"                                                                ",
"                                                                ",
"                                                                ",
"                                                                ",
"                                                                ",
"                                                                ",
"                                                                ",
"                                                                ",
"                                                                ",
"                                                                ",
"                                                                ",
"                          9,                                    ",
"                         h                                      ",
"                        k  9, #.##                              ",
"                       l  9 ..<<<<...                           ",
"                      z  h ...66<<<..                           ",
"                        k  ...66<<<..                           ",
"                          ..6662552<<.                          ",
"                          .1662222j22..                         ",
"                        ..33662jjjxjj<.                         ",
"                       ...336662xxj226#                         ",
"                       ...336662xxj222#                         ",
"                       .11366622jj2521%                         ",
"                       .1133665522X...X                         ",
"                       .#.336556..X556...                       ",
"                       .##336666...566...                       ",
"                       ;;;.3336&::356jj66>                      ",
"                      ;;jj6;**4O33666xj66.                      ",
"                      ;jxx63#O4O3336622...                      ",
"                      .22263##7...33366..                       ",
"                      .22263##7...33366..                       ",
"                      ..338o--..==.883.##                       ",
"                       o...oppdfuu....                          ",
"                          0epaspeeq                             ",
"                       g    erytww                              ",
"                       g    rrytww                              ",
"                                                                ",
"                                                                ",
"                                                                ",
"                                                                ",
"                                                                ",
"                                                                ",
"                                                                ",
"                                                                ",
"                                                                ",
"                                                                ",
"                                                                ",
"                                                                ",
"                                                                ",
"                                                                ",
"                                                                ",
"                                                                ",
"                                                                ",
"                                                                ",
"                                                                "
};
