/* XPM */
static char *b581c2b2488c490a90f2fdcdeaef8dd7MbRRuiIsaarjpigQ[] = {
/* columns rows colors chars-per-pixel */
"64 64 45 1 ",
"  c None",
". c #3F3203",
"X c #423403",
"o c #433503",
"O c #423504",
"+ c #413406",
"@ c #463803",
"# c #483905",
"$ c #433609",
"% c #564404",
"& c #524209",
"* c #4B4012",
"= c #53461A",
"- c #584B1F",
"; c #624F0E",
": c #6B5406",
"> c #6F6542",
", c #C97F0B",
"< c #CD850B",
"1 c #C9800C",
"2 c #C99E0B",
"3 c #F2BF0C",
"4 c #D8B335",
"5 c #FDC70E",
"6 c #FFC90E",
"7 c #DBB943",
"8 c #E5CC6C",
"9 c #96938C",
"0 c #98968E",
"q c #9B988D",
"w c #A39E8C",
"e c #A49E8E",
"r c #A5A08D",
"t c #ACA58E",
"y c #B4A78C",
"u c #B6AC8C",
"i c #B7AD8C",
"p c #B6AD8E",
"a c #B9AD8C",
"s c #B2AD9A",
"d c #B7B49A",
"f c #C1B483",
"g c #FFE794",
"h c black",
"j c white",
/* pixels */
"                                                                ",
"                                                                ",
"                                                                ",
"                                                                ",
"                                                                ",
"                                                                ",
"                                                                ",
"                                                                ",
"                                                                ",
"                                                                ",
"                                                                ",
"                                                                ",
"                                                                ",
"                                                                ",
"                              g     g                           ",
"                        g                                       ",
"                                                                ",
"                                  g                             ",
"                          g                                     ",
"                                                                ",
"                                                                ",
"                                                                ",
"                            ...###                              ",
"                           .,,,,,,#                             ",
"                          ..666533,##                           ",
"                          ..666533,1#                           ",
"                        ...66633hh311#                          ",
"                        ..26333hjjh,,.                          ",
"                       ...4633hjhh366,#                         ",
"                       .4446663hhh366,#                         ",
"                       .4446663hhh366,#                         ",
"                       .2246663333366<.                         ",
"                       .2244666666....@                         ",
"                       ...446666...666...                       ",
"                       ...446666...666...                       ",
"                       ;;;.4446%::466hh66>                      ",
"                      ;;hh6;&&4@44666jh66.                      ",
"                      ;hjj64XX7+4446633...                      ",
"                      .33364oX8+..44466..                       ",
"                      .33364++8$..44466..                       ",
"                      ..448X--=$$$.884.++                       ",
"                       X...Xiisfyy....                          ",
"                          9wipaiww0                             ",
"                       d    wetrqq                              ",
"                       d    eetrqq                              ",
"                                                                ",
"                                                                ",
"                                                                ",
"                                                                ",
"                                                                ",
"                                                                ",
"                                                                ",
"                                                                ",
"                                                                ",
"                                                                ",
"                                                                ",
"                                                                ",
"                                                                ",
"                                                                ",
"                                                                ",
"                                                                ",
"                                                                ",
"                                                                ",
"                                                                "
};
