/* XPM */
static char *result[] = {
/* columns rows colors chars-per-pixel */
"64 64 128 2 ",
"   c #412632",
".  c #753A34",
"X  c #743A35",
"o  c #753A35",
"O  c #763A34",
"+  c #773A34",
"@  c #773B34",
"#  c #763A35",
"$  c #773A35",
"%  c #783933",
"&  c #783A33",
"*  c #793A33",
"=  c #38421D",
"-  c #3B421D",
";  c #3B411E",
":  c #38421E",
">  c #39421E",
",  c #40481D",
"<  c #404A1C",
"1  c #404A1D",
"2  c #4E5F13",
"3  c #4E5F14",
"4  c #4E6013",
"5  c #76562C",
"6  c #77562E",
"7  c #76582D",
"8  c #79582D",
"9  c #7A5B2C",
"0  c #7A5B2D",
"q  c #7A592E",
"w  c #7D5B2D",
"e  c #7E5B2D",
"r  c #7C592F",
"t  c #7C5A2E",
"y  c #7D5B2E",
"u  c #7C5A2F",
"i  c #7D5B2F",
"p  c #7B5D2E",
"a  c #7D5C2E",
"s  c #B36445",
"d  c #B46445",
"f  c #B56445",
"g  c #B46545",
"h  c #B76545",
"j  c #B76645",
"k  c #B66546",
"l  c #B86645",
"z  c #B86646",
"x  c #B96646",
"c  c #B96746",
"v  c #BA6746",
"b  c #BB6746",
"n  c #BB6846",
"m  c #BD6945",
"M  c #BE6845",
"N  c #BE6A45",
"B  c #BF6A45",
"V  c #BC6846",
"C  c #BC6946",
"Z  c #BD6947",
"A  c #BE6846",
"S  c #BF6946",
"D  c #BE6A46",
"F  c #A9754F",
"G  c #A9764F",
"H  c #AD784F",
"J  c #A97650",
"K  c #AB7750",
"L  c #AC7850",
"P  c #AE7850",
"I  c #AF7B50",
"U  c #B17B51",
"Y  c #B27D51",
"T  c #B37D51",
"R  c #B37E51",
"E  c #B47D51",
"W  c #B47F51",
"Q  c #B67F51",
"!  c #B47E52",
"~  c #B57E52",
"^  c #B77F52",
"/  c #C06946",
"(  c #BC8952",
")  c #BF8C53",
"_  c #C08D53",
"`  c #C38F54",
"'  c #C48E54",
"]  c #D8995E",
"[  c #DA9B5F",
"{  c #DA9662",
"}  c #DB9762",
"|  c #DB9B60",
" . c #DD9862",
".. c #DC9C60",
"X. c #E09A64",
"o. c #E39C64",
"O. c #E39D64",
"+. c #E49C64",
"@. c #E59D65",
"#. c #E69D65",
"$. c #E49E64",
"%. c #E49E65",
"&. c #E69F65",
"*. c #E69E66",
"=. c #E7A065",
"-. c #E7A066",
";. c #EAA165",
":. c #E8A066",
">. c #E8A166",
",. c #E9A166",
"<. c #E9A167",
"1. c #EBA266",
"2. c #EAA267",
"3. c #ECA266",
"4. c #DDC398",
"5. c #DEC498",
"6. c #DEC499",
"7. c #DFC599",
"8. c #E0C599",
"9. c #E0C69A",
"0. c #E1C69A",
"q. c #E1C69B",
"w. c #E1C79B",
"e. c #E2C89B",
"r. c #E3C89C",
"t. c #E3C99C",
"y. c #E5CA9D",
"u. c None",
/* pixels */
"u.u.u.u.u.u.u.u.u.u.u.u.u.u.u.u.u.u.u.u.u.u.u.u.u.u.u.u.u.u.u.u.u.u.u.u.u.u.u.u.u.u.u.u.u.u.u.u.u.u.u.u.u.u.u.u.u.u.u.u.u.u.u.u.",
"u.u.u.u.u.u.u.u.u.u.u.u.u.u.u.u.u.u.u.u.u.u.u.u.u.u.u.u.u.u.u.u.u.u.u.u.u.u.u.u.u.u.u.u.u.u.u.u.u.u.u.u.u.u.u.u.u.u.u.u.u.u.u.u.",
"u.u.u.u.u.u.u.u.u.u.u.u.u.u.u.u.u.u.u.u.u.u.u.u.u.u.u.u.u.u.u.u.u.u.u.u.u.u.u.u.u.u.u.u.u.u.u.u.u.u.u.u.u.u.u.u.u.u.u.u.u.u.u.u.",
"u.u.u.u.u.u.u.u.u.u.u.u.u.u.u.u.u.u.u.u.u.u.u.u.u.u.u.u.u.u.u.u.u.u.u.u.u.u.u.u.u.u.u.u.u.u.u.u.u.u.u.u.u.u.u.u.u.u.u.u.u.u.u.u.",
"u.u.u.u.u.u.u.u.u.u.u.u.u.u.u.u.u.u.u.u.u.u.u.u.u.u.u.u.u.u.u.u.u.u.u.u.u.u.u.u.u.u.u.u.u.u.u.u.u.u.u.u.u.u.u.u.u.u.u.u.u.u.u.u.",
"u.u.u.u.u.u.u.u.u.u.u.u.u.u.u.u.u.u.u.u.u.u.u.u.u.u.u.u.u.u.u.u.u.u.u.u.u.u.u.u.u.u.u.u.u.u.u.u.u.u.u.u.u.u.u.u.u.u.u.u.u.u.u.u.",
"u.u.u.u.u.u.u.u.u.u.u.u.u.u.u.u.u.u.u.u.u.u.u.u.u.u.u.u.u.u.u.u.u.u.u.u.u.u.u.u.u.u.u.u.u.u.u.u.u.u.u.u.u.u.u.u.u.u.u.u.u.u.u.u.",
"u.u.u.u.u.u.u.u.u.u.u.u.u.u.u.u.u.u.u.u.u.u.u.u.u.u.u.u.u.u.u.u.u.u.u.u.u.u.u.u.u.u.u.u.u.u.u.u.u.u.u.u.u.u.u.u.u.u.u.u.u.u.u.u.",
"u.u.u.u.u.u.u.u.u.u.u.u.u.u.u.u.u.u.u.u.u.u.u.u.u.u.u.u.u.u.u.u.u.u.u.u.u.u.u.u.u.u.u.u.u.u.u.u.u.u.u.u.u.u.u.u.u.u.u.u.u.u.u.u.",
"u.u.u.u.u.u.u.u.u.u.u.u.u.u.u.u.u.u.u.u.u.u.u.u.u.u.u.u.u.u.u.u.u.u.u.u.u.u.u.u.u.u.u.u.u.u.u.u.u.u.u.u.u.u.u.u.u.u.u.u.u.u.u.u.",
"u.u.u.u.u.u.u.u.u.u.u.u.u.u.u.u.u.u.u.u.u.u.u.u.u.u.u.u.u.u.u.u.u.u.u.u.u.u.u.u.u.u.u.u.u.u.u.u.u.u.u.u.u.u.u.u.u.u.u.u.u.u.u.u.",
"u.u.u.u.u.u.u.u.u.u.u.u.u.u.u.u.u.u.u.u.u.u.u.u.u.u.u.u.u.u.u.u.u.u.u.u.u.u.u.u.u.u.u.u.u.u.u.u.u.u.u.u.u.u.u.u.u.u.u.u.u.u.u.u.",
"u.u.u.u.u.u.u.u.u.u.u.u.u.u.u.u.u.u.u.u.u.u.u.u.u.u.u.u.u.u.u.u.u.u.u.u.u.u.u.u.u.u.u.u.u.u.u.u.u.u.u.u.u.u.u.u.u.u.u.u.u.u.u.u.",
"u.u.u.u.u.u.u.u.u.u.u.u.u.u.u.u.u.u.u.u.u.u.u.u.u.u.u.u.u.u.u.u.u.u.u.u.u.u.u.u.u.u.u.u.u.u.u.u.u.u.u.u.u.u.u.u.u.u.u.u.u.u.u.u.",
"u.u.u.u.u.u.u.u.u.u.u.u.u.u.u.u.u.u.u.u.u.u.u.u.u.u.u.u.u.u.u.u.u.u.u.u.u.u.u.u.u.u.u.u.u.u.u.u.u.u.u.u.u.u.u.u.u.u.u.u.u.u.u.u.",
"u.u.u.u.u.u.u.u.u.u.u.u.u.u.u.u.u.u.u.u.u.u.u.u.u.u.u.u.u.u.u.u.u.u.u.u.u.u.u.u.u.u.u.u.u.u.u.u.u.u.u.u.u.u.u.u.u.u.u.u.u.u.u.u.",
"u.u.u.u.u.u.u.u.u.u.u.u.u.u.u.u.u.u.u.u.u.u.u.u.u.u.u.u.u.u.u.u.u.u.u.u.u.u.u.u.u.u.u.u.u.u.u.u.u.u.u.u.u.u.u.u.u.u.u.u.u.u.u.u.",
"u.u.u.u.u.u.u.u.u.u.u.u.u.u.u.u.u.u.u.u.u.u.u.u.u.u.u.u.u.u.u.u.u.u.u.u.u.u.u.u.u.u.u.u.u.u.u.u.u.u.u.u.u.u.u.u.u.u.u.u.u.u.u.u.",
"u.u.u.u.u.u.u.u.u.u.u.u.u.u.u.u.u.u.u.u.u.u.u.u.u.u.u.u.u.u.u.u.u.u.u.u.u.u.u.u.u.u.u.u.u.u.u.u.u.u.u.u.u.u.u.u.u.u.u.u.u.u.u.u.",
"u.u.u.u.u.u.u.u.u.u.u.u.u.u.u.u.u.u.u.u.u.u.u.u.u.u.u.u.u.u.u.u.u.u.u.u.u.u.u.u.u.u.u.u.u.u.u.u.u.u.u.u.u.u.u.u.u.u.u.u.u.u.u.u.",
"u.u.u.u.u.u.u.u.u.u.u.u.u.u.u.u.u.u.u.u.u.u.u.u.u.u.u.u.u.u.u.u.u.u.u.u.u.u.u.u.u.u.u.u.u.u.u.u.u.u.u.u.u.u.u.u.u.u.u.u.u.u.u.u.",
"u.u.u.u.u.u.u.u.u.u.u.u.u.u.u.u.u.u.u.u.u.u.u.u.u.u.u.u.u.u.u.u.u.u.u.u.u.u.u.u.u.u.u.u.u.u.u.u.u.u.u.u.u.u.u.u.u.u.u.u.u.u.u.u.",
"u.u.u.u.u.u.u.u.u.u.u.u.u.u.u.u.u.u.u.u.u.u.u.u.u.u.u.u.u.u.u.u.u.u.u.u.u.u.u.u.u.u.u.u.u.u.u.u.u.u.u.u.u.u.u.u.u.u.u.u.u.u.u.u.",
"u.u.u.u.u.u.u.u.u.u.u.u.u.u.u.u.u.u.u.u.u.u.u.u.u.u.u.u.u.u.u.u.u.u.u.u.u.u.u.u.u.u.u.u.u.u.u.u.u.u.u.u.u.u.u.u.u.u.u.u.u.u.u.u.",
"u.u.u.u.u.u.u.u.u.u.u.u.u.u.u.u.u.u.u.u.u.u.u.u.u.u.u.u.u.u.u.u.u.u.u.u.u.u.u.u.u.u.u.u.u.u.u.u.u.u.u.u.u.u.u.u.u.u.u.u.u.u.u.u.",
"u.u.u.u.u.u.u.u.u.u.u.u.u.u.u.u.u.u.u.u.u.u.u.u.u.u.u.u.u.u.u.u.u.u.u.u.u.u.u.u.u.u.u.u.u.u.u.u.u.u.u.u.u.u.u.u.u.u.u.u.u.u.u.u.",
"u.u.u.u.u.u.u.u.u.u.u.u.u.u.u.u.u.u.u.u.u.u.u.u.u.u.u.u.u.u.u.u.u.u.u.u.u.u.u.u.u.u.u.u.u.u.u.u.u.u.u.u.u.u.u.u.u.u.u.u.u.u.u.u.",
"u.u.u.u.u.u.u.u.u.u.u.u.u.u.u.u.u.u.u.u.u.u.u.u.u.u.u.u.u.u.W u.u.u.E u.u.u.u.u.u.u.u.u.u.u.u.u.u.u.u.u.u.u.u.u.u.u.u.u.u.u.u.u.",
"u.u.u.u.u.u.u.u.u.u.u.u.u.u.u.u.u.u.u.u.u.u.u.u.u.! u.u.u.R u.u.u.u.R R < u.u.u.u.W u.u.u.u.u.u.u.u.u.u.u.u.u.u.u.u.u.u.u.u.u.u.",
"u.u.u.u.u.u.u.u.u.u.u.u.u.u.u.u.4 4 u.u.u.W u.u.u.R R R R R u.1 m Y , , u.u.R R E u.u.u.~ u.u.u.u.u.u.u.u.u.u.u.u.u.u.u.u.u.u.u.",
"u.u.u.u.u.u.u.u.u.u.u.u.u.u.u.u.u.2 u.S S N R R M + & Y Y U V V V V V V + + @ m M 6 R u.u.u.u.~ u.u.u.u.u.u.u.u.u.u.u.u.u.u.u.u.",
"u.u.u.u.u.u.u.u.u.u.u.u.u.u.u.u.u.3 S S & & @ @ + @ + @ + @.b v v v v + + @ + @ V Z R M 7 u.u.u.u.u.u.u.u.u.u.u.u.u.u.u.u.u.u.u.",
"u.u.u.u.u.u.u.u.u.u.u.u.^ 4 4 u.u.S & % m @ + n n b @.v c x O z z # z o.o.$.v b @ + Y m ( A ) W u.u.u.u.u.u.u.u.u.u.u.u.u.u.u.u.",
"u.u.u.u.u.u.u.u.u.u.u.u.u.~ 2 2 & & <.m V V n v +.x r.z O o . 9.8.h 9.0.j z x x v b @ V >.M 2._ ' u.u.u.u.u.u.u.u.u.u.u.u.u.u.u.",
"u.u.u.u.u.u.u.u.u.u.u.u.u.~ u.3 2.M >.-.n b y.x l 0.  7.f 5.  4.d       6.7.k q.l x + n V :.,.2.` u.r i u.u.u.u.u.u.u.u.u.u.u.u.",
"u.u.u.u.u.u.u.u.u.u.u.u.u.u.| ] <.m V n $ t.l 0.                              6.h w.# + b n m ,.5 8 q u u.u.u.u.u.u.u.u.u.u.u.u.",
"u.u.u.u.u.u.u.u.u.u.u.u.u.u.2.R Z V + v   z                                       f 0.l c b n :.M A S t w u.u.u.u.u.u.u.u.u.u.u.",
"u.u.u.u.u.u.u.u.u.u.u.u.3 u.M m V   v x                                             6.9.O O b V m <.2.B / e u.u.u.u.u.u.u.u.u.u.",
"u.u.u.u.u.u.u.u.u.u.u.u...2.<.m + b t.e.                                                  O v + -.,.2.S y e u.u.u.u.u.u.u.u.u.u.",
"u.u.u.u.u.u.u.u.u.u.4 3 [ 2.,.V n v r.                                                      O $ n :.M D ! ~ u.u.u.u.u.u.u.u.u.u.",
"u.u.u.u.u.u.4 u.u.u.u.3.1.;.,.V b                                                           # # b -.,.& E a u.u.u.u.u.u.u.u.u.u.",
"u.u.u.u.u.u.4 u.^ ~ u.W 2.Z m n v t.                                                          # $ n :.A N 9 u.u.u.u.u.u.u.u.u.u.",
"u.u.u.u.u.u.u.u.u.  ~ W N <.m + + r.9.                                                        l v n -.,.A 0 u.u.u.u.u.u.u.u.u.u.",
"u.u.u.u.u.u.u.u.u.u.  W 2.,.:.#.v O 9.                                                      L P c @.-.,.M 0 u.u.u.u.u.u.u.u.u.u.",
"u.u.u.u.u.u.u.u.u.u.  3.2.,.:.&.v x j                                                         H O @.=.,.% u.u.u.u.u.u.u.u.u.u.u.",
"u.u.u.u.u.u.u.u.u.    S 2.<.:.*.v                                                             H O + V m M & u.u.u.u.u.u.u.u.u.u.",
"u.u.u.u.u.u.u.u.u.    S S ;.,.V b O                                                             O + V ,.M S u.u.u.u.u.u.u.u.u.u.",
"u.u.u.u.u.u.u.u.u.    S S 2.,.V + I l H                                                       O O b V m M S p u.u.u.u.u.u.u.u.u.",
"u.u.u.u.u.u.u.u.u.    & S N A m n v c                                               F         z @.&.-.m M & u.u.u.u.u.u.u.u.u.u.",
"u.u.u.u.u.u.u.u.u.    & S S 2.>.V n v                                               G K L   l c @.&.m M u.u.u.~ u.u.u.u.u.u.u.u.",
"u.u.u.u.u.u.u.u.u.      & S N ,.>.V n v #                                               H z c @.n V % % : W u.u.u.u.u.u.u.u.u.u.",
"u.u.u.u.u.u.u.u.u.      & * & 2.,.m V b v # O h f                                 d f   l o.v n V m A E E W u.u.u.u.u.u.u.u.u.u.",
"u.u.u.u.u.u.u.u.u.u.        & S 2.,.:.V n v x l k             X J   G { s s g 6.f h     c v n V m M & = W u.u.u.u.u.u.u.u.u.u.u.",
"u.u.u.u.u.u.u.u.u.u.u.        & S 2.M m -.&.v x x l O . o o o X g g d o o   h l z # O + + + @ @ &   W E u.u.u.u.u.u.u.u.u.u.u.u.",
"u.u.u.u.u.u.u.u.u.u.u.          W E A A m V n n v v O O O O O o k k k l } X.z c +.+ + + @ & % & R   > u.u.u.u.u.u.u.u.u.u.u.u.u.",
"u.u.u.u.u.u.u.u.u.u.u.u.u.    ~ ~ & & & % m m V &.n b v O O O c o. .o.O.v v %.b n + @ & T R R   E u.u.u.u.u.u.u.u.u.u.u.u.u.u.u.",
"u.u.u.u.u.u.u.u.u.u.u.u.u.u.^ ~         & & & Y m V V n V n n b + + + n n n V V V m @       E ! u.~ u.u.u.u.u.u.u.u.u.u.u.u.u.u.",
"u.u.u.u.u.u.u.u.u.u.u.u.u.u.u.              E & % M m & m + + @ C C V V m @ % m A %     E   - u.u.u.u.u.u.u.u.u.u.u.u.u.u.u.u.u.",
"u.u.u.u.u.u.u.u.u.u.u.u.u.u.u.          Q ~ W   & E & & & & & M & & & & & & R & E E ! ; Q u.u.u.u.u.u.u.u.u.u.u.u.u.u.u.u.u.u.u.",
"u.u.u.u.u.u.u.u.u.u.u.u.u.u.u.u.u.              Q W       & N E                   Q   u.u.u.u.u.u.u.u.u.u.u.u.u.u.u.u.u.u.u.u.u.",
"u.u.u.u.u.u.u.u.u.u.u.u.u.u.u.u.u.u.u.u.                        W       W           u.u.u.u.u.u.u.u.u.u.u.u.u.u.u.u.u.u.u.u.u.u.",
"u.u.u.u.u.u.u.u.u.u.u.u.u.u.u.u.u.u.u.u.u.                                    u.u.u.u.u.u.u.u.u.u.u.u.u.u.u.u.u.u.u.u.u.u.u.u.u.",
"u.u.u.u.u.u.u.u.u.u.u.u.u.u.u.u.u.u.u.u.u.u.u.u.u.u.u.u.u.u.u.u.u.u.u.u.u.u.u.u.u.u.u.u.u.u.u.u.u.u.u.u.u.u.u.u.u.u.u.u.u.u.u.u.",
"u.u.u.u.u.u.u.u.u.u.u.u.u.u.u.u.u.u.u.u.u.u.u.u.u.u.u.u.u.u.u.u.u.u.u.u.u.u.u.u.u.u.u.u.u.u.u.u.u.u.u.u.u.u.u.u.u.u.u.u.u.u.u.u."
};
