/* XPM */
static char *result[] = {
/* columns rows colors chars-per-pixel */
"64 64 116 2 ",
"   c #1D3E0F",
".  c #1C2D1E",
"X  c #1D3516",
"o  c #1D3C12",
"O  c #1E341C",
"+  c #1F3B1B",
"@  c #203E15",
"#  c #20361C",
"$  c #223C1C",
"%  c #1E2C23",
"&  c #1E2D2B",
"*  c #1F3323",
"=  c #1F312D",
"-  c #202F2C",
";  c #213424",
":  c #233C22",
">  c #293E25",
",  c #21332C",
"<  c #243B2B",
"1  c #2A3E2C",
"2  c #223531",
"3  c #253C32",
"4  c #253C39",
"5  c #1D4606",
"6  c #1E4C02",
"7  c #1E430B",
"8  c #1F4C0B",
"9  c #1E5102",
"0  c #1F4212",
"q  c #204E04",
"w  c #20460D",
"e  c #234C0C",
"r  c #235206",
"t  c #255309",
"y  c #29560C",
"u  c #2A590D",
"i  c #234414",
"p  c #254B13",
"a  c #294E15",
"s  c #25441B",
"d  c #28461C",
"f  c #274A1A",
"g  c #2A4B1B",
"h  c #265111",
"j  c #2A5312",
"k  c #2E5D12",
"l  c #2B5219",
"z  c #305E13",
"x  c #326014",
"c  c #264222",
"v  c #2A4424",
"b  c #2C4A23",
"n  c #2B442A",
"m  c #2E492A",
"M  c #314C2C",
"N  c #274034",
"B  c #294333",
"V  c #2F4831",
"C  c #264038",
"Z  c #29463A",
"A  c #2A483A",
"S  c #305837",
"D  c #355F3B",
"F  c #283540",
"G  c #2C3A45",
"H  c #2E3D49",
"J  c #303F4B",
"K  c #32414E",
"L  c #354552",
"P  c #374856",
"I  c #394957",
"U  c #3A4B59",
"Y  c #2F5753",
"T  c #2F5854",
"R  c #305955",
"E  c #335E59",
"W  c #3B7D4F",
"Q  c #36615D",
"!  c #3C7E50",
"~  c #386561",
"^  c #3B6864",
"/  c #4D8235",
"(  c #518638",
")  c #53883A",
"_  c #5A923E",
"`  c #63AB3F",
"'  c #3E8152",
"]  c #5B9141",
"[  c #418556",
"{  c #428758",
"}  c #458B5B",
"|  c #488F5F",
" . c #48905F",
".. c #65AD41",
"X. c #68AF43",
"o. c #6BB245",
"O. c #6FB648",
"+. c #70B749",
"@. c #74BB4C",
"#. c #78BE4F",
"$. c #79BF50",
"%. c #4B9463",
"&. c #4E9866",
"*. c #4F9A68",
"=. c #529D6B",
"-. c #54A16E",
";. c #56A471",
":. c #58A773",
">. c #59A874",
",. c #7CC253",
"<. c #81C656",
"1. c #82C857",
"2. c #85CB59",
"3. c #89CE5C",
"4. c #8CD15F",
"5. c #8ED260",
/* pixels */
"u u k y r 9 r r r t y r 9 6 9 q r t y y r y y r t t t r q 5 q 5 6 6 5 r t t t t r y r r y r t t q q q q r t r t 8 9 r 6 k k y y ",
"u u u u q 9 r 6 r t r r 9 6 q q r y r r y r y r t t t r q 6 6 6 6 6 5 q t t t t y y y r r y t r q q q q t t t r r r r 9 u u u u ",
"u y t k r r r 8 y r r r 6 6 6 6 r y r r r r y y t t t t q 6 6 6 5 5 6 q t t t t u r r r r r r r q 6 q q r r r t 9 9 r r k t y u ",
"y u u t 6 9 r r 8 t t t 9 q 6 q y r y r y y y r t t t t q 5 6 6 6 6 6 q t t t t r y y y r y y y 6 q q q r y r r r r 8 9 y u u y ",
"6 6 6 6 9 9 r 9 k k k k u u k y r y r r u k z x y t e t q q q 5 q 5 q q q q q y x x z u r y y r y y y u k k k k 9 r r 8 6 6 6 6 ",
"6 6 6 6 r 9 r 9 k k k k u u k y y r r r u k z k y r r q q q 5 5 5 5 w q t e q y u x z u r r r r u y k u k k k k r r 9 r 6 9 6 6 ",
"6 6 9 6 8 r 9 r k k k k u u y k r y r r u z z k t t q t   q   w 5 6 w q e q t y u x x u r r r r k u k u k k k k r 9 9 9 6 6 6 6 ",
"9 6 6 6 r r r 6 k k k k y u u y r r t r y x z z t t e e q q q w 6 5 q q e t q y z z x u y r r r y y y u k k k k 9 r 9 9 6 6 6 6 ",
"t u u u r 9 9 6 9 9 9 r k k k k r r r r y y j u t e e e 5 5 5 5 5 5 5 6 e e t t j y u y r r r r k k k k r 9 6 r 6 6 6 r y u u t ",
"u u u k 6 6 6 6 6 6 6 6 k k z k r r q r t t t h p p p p w 7 7 7 7     w p p e p y p t t r 9 r r k k k k 6 6 6 6 6 6 6 9 u u u u ",
"u u k u 6 6 6 6 6 6 9 6 k k k k q q q q t p p p f i i i @ o i @ @ @   i s i i d p h y t q q q r k k k z 6 6 6 6 6 6 6 6 u u u u ",
"u u u u 9 6 9 9 6 6 6 6 k k k k e q q e e a a c $ > > > : $ $ : $ $ : $ $ > > v d f e t q q q r k z k z 6 6 6 6 9 6 6 9 k k u k ",
"z u z z r r r r r 6 q q k k j l e e w e a g g m H H H G G G G F G G G G G F F F F d a e e w e e j k k k r 6 9 r r r r 9 z z u z ",
"z z z z u r u u r r r q j j a p i i @ f d g b M J J J H H H H G G G G G G G F 4 F b s s i i i e h j y h 9 r r r z r u u z z z z ",
"u u z z y y t y 6 r q q t h p i @ # > > v m M _ #.#.@.@.@.+.+.+.+.+.O.O.o.o.X.X.../ v > ; $ $ $ p h h y 9 r r 9 r u r u x x u z ",
"x z z z y y t y 9 8 r q h p f $ # ; J J K K L $.$.#.<.$.,.#.,.#.#.@.@.+.O.O.o.o.o...F F F F F : f p j t r 9 r r u r u r z u z z ",
"9 r 9 6 u y y y t t e e e e i $ $ , J L L L L 1.<.1.<.<.<.<.,.,.,.,.,.@.@.+.+.O.o.o.G G G G G : i i e q e t t t u y y u r r 6 r ",
"9 9 6 6 u y y u t e e e p i d > > 1 L L I I U 2.2.1.2.2.1.1.1.<.,.<.,.,.,.#.@.+.O.O.H G G G G > f p p p e q t r u y u u 6 6 6 6 ",
"9 9 6 6 u y y y t e p i f d m m M ] <.<.1.1.2.3.3.3.3.3.3.3.1.2.2.1.1.<.,.,.,.@.@.@.+.+.+.O.o.( b c s s p e t t y y y y 6 6 9 6 ",
"r 9 r 6 u u u y p p i s d m J J L $.<.<.1.2.3.3.3.3.4.4.4.3.4.3.3.3.2.2.1.<.<.,.,.#.#.@.@.@.@.+.H H G s g i e e y u y u 6 r 9 r ",
"q q q q u y j j a a g b n m H K J $.$.<.1.3.3.3.4.4.5.5.5.4.4.3.3.3.3.3.3.2.<.<.<.<.,.#.$.#.@.+.H H G v d g a p u t y u 6 r 6 6 ",
"r y r r u y j a g b M M M ) O.O.@.| %.&.<.1.3.3.3.5.5.5.5.4.5.5.4.4.4.3.3.3.3.2.1.1.<.<.,.%.%.| +.o.o./ m b d a y u u u r r t t ",
"y y y t y j a g b b M G G X.o.o.o.} | %.,.<.1.3.3.4.5.5.5.5.5.5.5.4.4.4.4.3.3.3.2.2.2.<.<.&.%.| +.O.X...F F b g a j u u y r r y ",
"y r t y y a a d b m M G F ......X.{ } | $.,.<.2.3.3.4.5.5.5.5.5.4.4.5.4.4.4.4.3.3.3.3.1.<.&.%.| +.o.o...F F n d a j u y y y y y ",
"r y r y h h f c v m V F F W ! ! ' X.o.+.@.,.,.<.2.3.:.:.:.3.4.3.4.3.4.4.:.>.>.4.3.3.3.2.<.,.#.@.} [ ! ! F F 1 s a a h u t y r r ",
"r y y r k l l v c n V F F W W ! ! X.X.o.+.@.,.<.1.2.-.;.;.3.3.3.3.3.3.3.:.:.>.3.3.3.2.1.<.,.#.+.{ [ ' ! F 4 < s g l k k t y u r ",
"r t r r u l d v c m V F F W W W ! ..X.o.o.+.@.,.,.<.=.-.-.2.1.2.2.2.3.2.;.:.:.3.3.3.1.<.<.#.@.+.[ [ ! ! F F < $ d l k k 9 u r r ",
"9 8 r r l f b n n B D ' W ` ` ` ` ....X.[ } | #.,.,.,.<.,.<.<.<.<.<.<.2.=.-.-.3.2.2.=.=.%.#.+.+.X.X.....! ! S < b b l h 9 r r r ",
"y 8 p 0 f d b F F F W W W ` ` ` ` ` ` ..' { } +.@.$.$.,.$.,.,.$.,.,.,.,.=.=.=.2.1.<.=.&.%.@.+.o.X.......W W W F F G d f h h 8 9 ",
"j h s i + : v F F F W W W ` ` ` ` ` ....! [ { O.+.@.@.+.@.+.@.@.@.@.$.,.&.=.=.<.<.<.&.%.| +.o.o.X.X.....W W W 4 F F + 0 0 h u k ",
"h p 0 $ * : < F F F W W W ` ` ` ` ` ` ..! ' [ o.O.o.O.O.O.O.O.O.+.+.+.@.%.&.&.,.,.,.%.| } o.o.X.....` ` W W ' F F G * + + 8 h u ",
"h 0 * * * , < F F F Y Y Y W W W W Y Y Y R R R o.o.o.o.X.o.[ ' [ o.o.O.O.+.@.$.,.,.$.^ ~ ~ E R Y ! W ! W Y T T F F G = * 0 0 h u ",
"a i $ . & - & F F F Y Y Y W W W W Y Y Y T T T ..........X.! ! ! X...o.o.O.+.#.#.$.$.~ ~ E R R R ! ! ! ! Y Y Y F F F % * $ i p u ",
"p i # % - & & F F F Y Y Y W W W W Y Y Y Y T Y ..........X.! ! ! ....` o.o.O.@.@.@.@.~ E R R Y Y ! ! W ! Y Y Y F F G % . # i t y ",
"y i . % % % & F F F Y Y Y Y Y Y Y W W W ..` ` ` ....T T T ! ! ! W W ! ' o.O.@.@.@.@.+.o.X.! ! ! Y Y Y Y Y Y Y F F F & % $ s h k ",
"e i . % % & & F F F Y Y Y Y Y Y Y W W W ` ` ` ` ` ` T T T ! W W W W W ' X.O.+.@.@.@.o.o.X.! ! ! Y Y Y Y Y Y Y F F F % % O 0 8 r ",
"e 0 O % & & & F F 2 Y Y Y Y Y Y Y W W W ` ` ` ` ` ` Y Y T W W W W W ! ! o.o.O.+.@.+.+.X.X.! ! ! Y T Y Y Y Y Y F F F & ; O 0 8 t ",
"e 0 O % % & & F F F Y Y Y W W W W W W W W W W ` ` ` W W W ` ` ` ! ! ! ' E Q ~ +.+.+.} [ ' ! ! ! ! ! ! ! Y Y Y F F 4 % . O 0 8 r ",
"e 0 O % & & & F F F Y Y Y W W W W W W W W W W ` ` ` W W W ` ..` ' ! ' ' E Q Q +.+.+.{ [ [ ! ! ! ! ! ! W Y Y Y F F F & % O 0 h 9 ",
"e i $ . & & & F F F Y Y Y W W W W W W W W W W ` ` ` W W W ..` ` ! ' ' [ E Q Q +.+.o.[ ' [ ! ! ! ! ! ! W Y Y Y F F F & * O p 8 u ",
"e @ # % % & & F F F Y Y Y ! W W W W W W W W W ` ` ` W W W ` ` ` ! ' ' ' E E E o.o.o.[ ' ! ! ! ! W W W W Y Y Y F F F % % . @ e t ",
"e i # . % & & F F F Y Y Y ! W W W W W W Y Y Y Y Y Y W W W W W W ! ! ' ' [ ' ' E R R R R Y ! ! ! W W W W Y Y Y F F 4 % . # @ e t ",
"e i # % & & - F F 4 T T Y W W W W W W W Y Y Y Y Y Y W W W W W W ! ! ! ! ' ! ' R R R R Y Y W W W W W W W Y Y Y F F F & . # @ e y ",
"7   X . & & - - 3 N Z T Y W W W W W W W Y Y Y Y Y Y W W W W W W W W W ! ' W W R R Y Y Y Y W W W W W W W Y Y 4 2 & & & - X   q q ",
"5 o X . % - - - 3 3 N F F Y Y Y Y W W W Y Y Y W W W W W W W W W Y Y Y Y W ! W W W W Y Y Y ! W W Y Y Y Y F F 2 2 - - - # X   q q ",
"7 7 X X . - ; ; < N N F F Y Y Y Y W W W Y Y Y W W W W W W W W W Y Y Y Y W W W W W W Y Y Y W W W Y Y Y Y F 4 2 1 ; ; . # X   w q ",
"5 7 o X # : ; < < 3 3 B 4 C Y Y Y W W W Y Y Y W W W W W W W W W Y Y Y Y W W W W W W Y Y Y W W W Y Y Y Z 3 3 1 , ; # $ $     q q ",
"6 e w   s $ : : < 1 3 3 3 4 F F F Y Y Y F F F Y Y Y Y Y Y Y Y Y Y Y Y Y Y Y Y Y Y Y 4 F F Y Y Y F F F 3 3 < < : > $ @ e     q q ",
"k k j l i i s : : < N < N N F F F Y Y Y F F F Y Y Y Y Y Y Y Y Y Y Y Y Y Y Y Y Y Y Y F F F Y Y Y F F F 2 < = * * s 0 p p j k k z ",
"k u z z y e i s + * = < = < F F F Y Y Y F F 4 Y Y Y Y Y Y T Y Y Y Y Y Y Y Y Y Y Y Y F F F Y Y R 4 F F 2 < : 0 s p h p t k k k k ",
"k k k z y p p p i * * = , 3 3 2 2 4 Y 4 2 2 4 Z Y Y Y Y T T T T Y Y Y Y Y Y Y Y Y 4 2 2 2 4 P 4 2 1 2 , * + @ i a h y y z z k k ",
"u k k k q t e w 0 o O * = = , = 2 - 4 - & 2 , 4 F F F F F F F F F F F F F F F F F 2 = & & , 4 2 , - - - * o 0 w 8 r r q u z u k ",
"u u u u r q 6 5 7 o O % * & , , , & F - - , 2 2 F F F F F F F F F F F F F F 4 F F = = & % - 4 2 - - - ; X o 7 5 6 6 6 6 k x u u ",
"u u k u q 6 6 5 7 7 X O * , ; , * , F = ; , - 2 F F F G F F F F F F F F F F F F F = & * - - F - ; ; ; : X   7 5 6 6 6 q u u u u ",
"u u k u 6 6 6 6 5 7 o X : : : < ; O O # # ; - , - & - - - = = & - - & & = = = = = * * O # O ; $ ; : : $ o 7 7 6 6 6 6 9 u k u u ",
"y y u u r 6 6 6 q 7 7 o s s c $ $ @ X $ $ : ; ; - & & & & & - - - & & & = = = = : : : i @ @ $ $ c s d d 7 7 e q 6 6 9 r u u y y ",
"9 6 6 6 r r r 6 k j j l a f s s @   e @ a > $ ; = % & & & & & & & & % & & % & * > d g f w i @ @ s f p p j l j k 6 r q t 6 6 6 6 ",
"6 6 6 6 r 6 r q k k l k h a p p e e e e a a > $ O . . % . . . . % & % % % . % O $ g a a e e w e f h j j k k k k r r 9 r 6 6 6 6 ",
"6 6 6 6 8 r 9 r k k k l h j h a e e e e a a d > $ O O O O X X . . . X O O O X + d g j j e e e e h h j u k k k k 6 r r r 6 6 9 6 ",
"6 6 6 6 r 9 r r k k k k u j j h e t t q y a a g i @ i o o X o         o 0 o 0 p l j z y q t e e h j u j k k k k r 9 9 q 6 6 6 6 ",
"t u u t 6 9 r 9 r t t t 9 q 6 5 t t t r y t a e e e e w 7 7 7 7     w   e e e w e y y t r t e e 9 6 q 6 t t t r r 9 8 9 r u y u ",
"u y t k r r 8 r t t r r 6 6 6 q t t r r r t r e p e e t e 5 5 5 q 5 q q e e e y t r t q r t t t 6 6 q 6 t r 9 y 9 r r r k t u y ",
"u u u u 9 r 9 r r t r t 6 6 q q t t t t r t t t t t t y q 5 6 5 5 q q w t t p t r y y r r t t t q 6 6 9 r t y r r r 9 r u u u u ",
"u u u u r 9 r r r t r r q 6 q q t t t t r y t t t t e t q 6 6 6 6 5 q q t t t t y r y t r r t t q r 6 6 t r r r r 9 8 9 u u u u "
};
